<svg aria-roledescription="er" viewBox="0 0 1729.15380859375 788" style="max-width: 1729.15px; background-color: white;" xmlns:xlink="http://www.w3.org/1999/xlink" xmlns="http://www.w3.org/2000/svg" width="100%" id="mermaid-0"><style>#mermaid-0{font-family:"trebuchet ms",verdana,arial,sans-serif;font-size:16px;fill:#000000;}#mermaid-0 .error-icon{fill:#552222;}#mermaid-0 .error-text{fill:#552222;stroke:#552222;}#mermaid-0 .edge-thickness-normal{stroke-width:2px;}#mermaid-0 .edge-thickness-thick{stroke-width:3.5px;}#mermaid-0 .edge-pattern-solid{stroke-dasharray:0;}#mermaid-0 .edge-pattern-dashed{stroke-dasharray:3;}#mermaid-0 .edge-pattern-dotted{stroke-dasharray:2;}#mermaid-0 .marker{fill:#000000;stroke:#000000;}#mermaid-0 .marker.cross{stroke:#000000;}#mermaid-0 svg{font-family:"trebuchet ms",verdana,arial,sans-serif;font-size:16px;}#mermaid-0 .entityBox{fill:#cde498;stroke:#13540c;}#mermaid-0 .attributeBoxOdd{fill:#ffffff;stroke:#13540c;}#mermaid-0 .attributeBoxEven{fill:#f2f2f2;stroke:#13540c;}#mermaid-0 .relationshipLabelBox{fill:hsl(78.1578947368, 58.4615384615%, 84.5098039216%);opacity:0.7;background-color:hsl(78.1578947368, 58.4615384615%, 84.5098039216%);}#mermaid-0 .relationshipLabelBox rect{opacity:0.5;}#mermaid-0 .relationshipLine{stroke:#000000;}#mermaid-0 .entityTitleText{text-anchor:middle;font-size:18px;fill:#000000;}#mermaid-0 :root{--mermaid-font-family:"trebuchet ms",verdana,arial,sans-serif;}</style><g/><defs><marker orient="auto" markerHeight="18" markerWidth="18" refY="9" refX="0" id="ONLY_ONE_START"><path d="M9,0 L9,18 M15,0 L15,18" fill="none" stroke="gray"/></marker></defs><defs><marker orient="auto" markerHeight="18" markerWidth="18" refY="9" refX="18" id="ONLY_ONE_END"><path d="M3,0 L3,18 M9,0 L9,18" fill="none" stroke="gray"/></marker></defs><defs><marker orient="auto" markerHeight="18" markerWidth="30" refY="9" refX="0" id="ZERO_OR_ONE_START"><circle r="6" cy="9" cx="21" fill="white" stroke="gray"/><path d="M9,0 L9,18" fill="none" stroke="gray"/></marker></defs><defs><marker orient="auto" markerHeight="18" markerWidth="30" refY="9" refX="30" id="ZERO_OR_ONE_END"><circle r="6" cy="9" cx="9" fill="white" stroke="gray"/><path d="M21,0 L21,18" fill="none" stroke="gray"/></marker></defs><defs><marker orient="auto" markerHeight="36" markerWidth="45" refY="18" refX="18" id="ONE_OR_MORE_START"><path d="M0,18 Q 18,0 36,18 Q 18,36 0,18 M42,9 L42,27" fill="none" stroke="gray"/></marker></defs><defs><marker orient="auto" markerHeight="36" markerWidth="45" refY="18" refX="27" id="ONE_OR_MORE_END"><path d="M3,9 L3,27 M9,18 Q27,0 45,18 Q27,36 9,18" fill="none" stroke="gray"/></marker></defs><defs><marker orient="auto" markerHeight="36" markerWidth="57" refY="18" refX="18" id="ZERO_OR_MORE_START"><circle r="6" cy="18" cx="48" fill="white" stroke="gray"/><path d="M0,18 Q18,0 36,18 Q18,36 0,18" fill="none" stroke="gray"/></marker></defs><defs><marker orient="auto" markerHeight="36" markerWidth="57" refY="18" refX="39" id="ZERO_OR_MORE_END"><circle r="6" cy="18" cx="9" fill="white" stroke="gray"/><path d="M21,18 Q39,0 57,18 Q39,36 21,18" fill="none" stroke="gray"/></marker></defs><path style="stroke: gray; fill: none;" marker-start="url(#ZERO_OR_ONE_START)" marker-end="url(#ONLY_ONE_END)" d="M616.2214202880859,600L616.2214202880859,608.3333333333334C616.2214202880859,616.6666666666666,616.2214202880859,633.3333333333334,616.2214202880859,650C616.2214202880859,666.6666666666666,616.2214202880859,683.3333333333334,616.2214202880859,691.6666666666666L616.2214202880859,700" class="er relationshipLine"/><path style="stroke: gray; fill: none;" marker-start="url(#ZERO_OR_MORE_START)" marker-end="url(#ONLY_ONE_END)" d="M336.3467760587993,314.5L331.3029164096765,324.0833333333333C326.25905676055373,333.6666666666667,316.17133746230814,352.8333333333333,311.1274778131853,378.0833333333333C306.0836181640625,403.3333333333333,306.0836181640625,434.6666666666667,306.0836181640625,450.3333333333333L306.0836181640625,466" class="er relationshipLine"/><path style="stroke: gray; fill: none;" marker-start="url(#ZERO_OR_MORE_START)" marker-end="url(#ONLY_ONE_END)" d="M382.39977706106083,314.5L389.1250176680715,324.0833333333333C395.85025827508224,333.6666666666667,409.3007394891036,352.8333333333333,436.172694624516,376.89121274898497C463.0446497599284,400.94909216463657,503.33807881673175,429.89818432927314,523.4847933451334,444.3727304115914L543.6315078735352,458.84727649390976" class="er relationshipLine"/><path style="stroke: gray; fill: none;" marker-start="url(#ZERO_OR_MORE_START)" marker-end="url(#ONLY_ONE_END)" d="M582.483154296875,300L582.483154296875,312C582.483154296875,324,582.483154296875,348,584.5058321140939,368.3333333333333C586.5285099313128,388.6666666666667,590.5738655657505,405.3333333333333,592.5965433829693,413.6666666666667L594.6192212001882,422" class="er relationshipLine"/><path style="stroke: gray; fill: none;" marker-start="url(#ZERO_OR_MORE_START)" marker-end="url(#ONLY_ONE_END)" d="M782.483154296875,300L782.483154296875,312C782.483154296875,324,782.483154296875,348,766.8711840311686,373.05209451754223C751.2592137654623,398.1041890350845,720.0352732340494,424.2083780701691,704.4233029683431,437.2604725877113L688.8113327026367,450.3125671052536" class="er relationshipLine"/><path style="stroke: gray; fill: none;" marker-start="url(#ZERO_OR_ONE_START)" marker-end="url(#ONLY_ONE_END)" d="M438.64156341552734,97.60133869782476L382.7529487609863,111.6677822481873C326.8643341064453,125.73422579854984,215.08710479736328,153.86711289927493,159.19849014282227,178.10022311630414C103.30987548828125,202.33333333333334,103.30987548828125,222.66666666666666,103.30987548828125,232.83333333333334L103.30987548828125,243" class="er relationshipLine"/><path style="stroke: gray; fill: none;" marker-start="url(#ZERO_OR_MORE_START)" marker-end="url(#ONLY_ONE_END)" d="M605.8725971725752,121L624.264067691827,131.16666666666666C642.6555382110788,141.33333333333334,679.4384792495824,161.66666666666666,706.1998530120496,183.83333333333334C732.961226774517,206,749.7010332609478,230,758.0709365041633,242L766.4408397473787,254" class="er relationshipLine"/><path style="stroke: gray; fill: none;" marker-start="url(#ZERO_OR_MORE_START)" marker-end="url(#ONLY_ONE_END)" d="M610.2938919067383,99.0694869454838L661.7154070536295,112.8912391212365C713.1369222005209,126.71299129698919,815.9799524943033,154.3564956484946,873.2139004489832,176.51158115758062C930.447848403663,198.66666666666666,942.0727140192399,215.33333333333334,947.8851468270285,223.66666666666666L953.697579634817,232" class="er relationshipLine"/><path style="stroke: gray; fill: none;" marker-start="url(#ZERO_OR_MORE_START)" marker-end="url(#ONLY_ONE_END)" d="M1569.7676696777344,322L1569.7676696777344,330.3333333333333C1569.7676696777344,338.6666666666667,1569.7676696777344,355.3333333333333,1422.941613515218,385.0697415774569C1276.115557352702,414.8061498215806,982.4634450276693,457.6122996431612,835.637388865153,479.01537455395146L688.8113327026367,500.41844946474174" class="er relationshipLine"/><path style="stroke: gray; fill: none;" marker-start="url(#ZERO_OR_MORE_START)" marker-end="url(#ONLY_ONE_END)" d="M1442.4892272949219,106.39951125209939L1413.3333415985107,118.99959271008282C1384.1774559020996,131.59967416806626,1325.8656845092773,156.79983708403313,1295.9624270054333,177.73325187534988C1266.0591695015892,198.66666666666666,1264.564425886723,215.33333333333334,1263.81705407929,223.66666666666666L1263.0696822718571,232" class="er relationshipLine"/><path style="stroke: gray; fill: none;" marker-start="url(#ZERO_OR_MORE_START)" marker-end="url(#ONLY_ONE_END)" d="M1535.988501044939,113.5L1543.038368917861,124.91666666666667C1550.0882367907827,136.33333333333334,1564.1879725366268,159.16666666666666,1570.4904686021157,178.91666666666666C1576.7929646676048,198.66666666666666,1575.2982210527389,215.33333333333334,1574.5508492453057,223.66666666666666L1573.8034774378727,232" class="er relationshipLine"/><path style="stroke: gray; fill: none;" marker-start="url(#ZERO_OR_MORE_START)" marker-end="url(#ONLY_ONE_END)" d="M1055.726903951393,132L1049.5762504241752,140.33333333333334C1043.4255968969574,148.66666666666666,1031.1242898425216,165.33333333333334,993.9169982334353,186.15030362541663C956.709706624349,206.9672739174999,894.5964304606119,231.93454783499985,863.5397923787435,244.4181847937498L832.483154296875,256.90182175249976" class="er relationshipLine"/><path style="stroke: gray; fill: none;" marker-start="url(#ZERO_OR_MORE_START)" marker-end="url(#ONLY_ONE_END)" d="M1134.3017350682671,132L1139.8437647429653,140.33333333333334C1145.3857944176632,148.66666666666666,1156.469853767059,165.33333333333334,1205.8164762101085,184.01299680855814C1255.1630986531575,202.69266028378297,1342.77228418986,223.38532056756594,1386.5768769582112,233.73165070945743L1430.3814697265625,244.0779808513489" class="er relationshipLine"/><g transform="translate(564.0034790039062,700 )" id="entity-UserStatus-a5261668-5a0e-46f2-99e4-0ec5b02ecaa7"><rect height="68" width="104.43588256835938" y="0" x="0" class="er entityBox"/><text style="dominant-baseline: middle; text-anchor: middle; font-size: 12px;" transform="translate(52.21794128417969,12)" y="0" x="0" id="text-entity-UserStatus-a5261668-5a0e-46f2-99e4-0ec5b02ecaa7" class="er entityLabel">UserStatus</text><rect height="22" width="52.21794128417969" y="24" x="0" class="er attributeBoxOdd"/><text style="dominant-baseline: middle; font-size: 10.2px;" transform="translate(5,35)" y="0" x="0" id="text-entity-UserStatus-a5261668-5a0e-46f2-99e4-0ec5b02ecaa7-attr-1-type" class="er entityLabel">ACTIVE</text><rect height="22" width="52.21794128417969" y="24" x="52.21794128417969" class="er attributeBoxOdd"/><text style="dominant-baseline: middle; font-size: 10.2px;" transform="translate(57.21794128417969,35)" y="0" x="0" id="text-entity-UserStatus-a5261668-5a0e-46f2-99e4-0ec5b02ecaa7-attr-1-name" class="er entityLabel">ACTIVE</text><rect height="22" width="52.21794128417969" y="46" x="0" class="er attributeBoxEven"/><text style="dominant-baseline: middle; font-size: 10.2px;" transform="translate(5,57)" y="0" x="0" id="text-entity-UserStatus-a5261668-5a0e-46f2-99e4-0ec5b02ecaa7-attr-2-type" class="er entityLabel">INACTIVE</text><rect height="22" width="52.21794128417969" y="46" x="52.21794128417969" class="er attributeBoxEven"/><text style="dominant-baseline: middle; font-size: 10.2px;" transform="translate(57.21794128417969,57)" y="0" x="0" id="text-entity-UserStatus-a5261668-5a0e-46f2-99e4-0ec5b02ecaa7-attr-2-name" class="er entityLabel">INACTIVE</text></g><g transform="translate(20,243 )" id="entity-ProcedureApproval-63602803-b16c-4639-8975-205a605fed50"><rect height="68" width="166.6197509765625" y="0" x="0" class="er entityBox"/><text style="dominant-baseline: middle; text-anchor: middle; font-size: 12px;" transform="translate(83.30987548828125,12)" y="0" x="0" id="text-entity-ProcedureApproval-63602803-b16c-4639-8975-205a605fed50" class="er entityLabel">ProcedureApproval</text><rect height="22" width="83.30987548828125" y="24" x="0" class="er attributeBoxOdd"/><text style="dominant-baseline: middle; font-size: 10.2px;" transform="translate(5,35)" y="0" x="0" id="text-entity-ProcedureApproval-63602803-b16c-4639-8975-205a605fed50-attr-1-type" class="er entityLabel">APPROVED</text><rect height="22" width="83.30987548828125" y="24" x="83.30987548828125" class="er attributeBoxOdd"/><text style="dominant-baseline: middle; font-size: 10.2px;" transform="translate(88.30987548828125,35)" y="0" x="0" id="text-entity-ProcedureApproval-63602803-b16c-4639-8975-205a605fed50-attr-1-name" class="er entityLabel">APPROVED</text><rect height="22" width="83.30987548828125" y="46" x="0" class="er attributeBoxEven"/><text style="dominant-baseline: middle; font-size: 10.2px;" transform="translate(5,57)" y="0" x="0" id="text-entity-ProcedureApproval-63602803-b16c-4639-8975-205a605fed50-attr-2-type" class="er entityLabel">NOT_APPROVED</text><rect height="22" width="83.30987548828125" y="46" x="83.30987548828125" class="er attributeBoxEven"/><text style="dominant-baseline: middle; font-size: 10.2px;" transform="translate(88.30987548828125,57)" y="0" x="0" id="text-entity-ProcedureApproval-63602803-b16c-4639-8975-205a605fed50-attr-2-name" class="er entityLabel">NOT_APPROVED</text></g><g transform="translate(543.6315078735352,422 )" id="entity-usuarios-0588de21-826a-418d-9a05-ae95c37af586"><rect height="178" width="145.17982482910156" y="0" x="0" class="er entityBox"/><text style="dominant-baseline: middle; text-anchor: middle; font-size: 12px;" transform="translate(72.58991241455078,12)" y="0" x="0" id="text-entity-usuarios-0588de21-826a-418d-9a05-ae95c37af586" class="er entityLabel">usuarios</text><rect height="22" width="59.19660949707031" y="24" x="0" class="er attributeBoxOdd"/><text style="dominant-baseline: middle; font-size: 10.2px;" transform="translate(5,35)" y="0" x="0" id="text-entity-usuarios-0588de21-826a-418d-9a05-ae95c37af586-attr-1-type" class="er entityLabel">String</text><rect height="22" width="63.2955322265625" y="24" x="59.19660949707031" class="er attributeBoxOdd"/><text style="dominant-baseline: middle; font-size: 10.2px;" transform="translate(64.19660949707031,35)" y="0" x="0" id="text-entity-usuarios-0588de21-826a-418d-9a05-ae95c37af586-attr-1-name" class="er entityLabel">id</text><rect height="22" width="22.68768310546875" y="24" x="122.49214172363281" class="er attributeBoxOdd"/><text style="dominant-baseline: middle; font-size: 10.2px;" transform="translate(127.49214172363281,35)" y="0" x="0" id="text-entity-usuarios-0588de21-826a-418d-9a05-ae95c37af586-attr-1-key" class="er entityLabel">PK</text><rect height="22" width="59.19660949707031" y="46" x="0" class="er attributeBoxEven"/><text style="dominant-baseline: middle; font-size: 10.2px;" transform="translate(5,57)" y="0" x="0" id="text-entity-usuarios-0588de21-826a-418d-9a05-ae95c37af586-attr-2-type" class="er entityLabel">String</text><rect height="22" width="63.2955322265625" y="46" x="59.19660949707031" class="er attributeBoxEven"/><text style="dominant-baseline: middle; font-size: 10.2px;" transform="translate(64.19660949707031,57)" y="0" x="0" id="text-entity-usuarios-0588de21-826a-418d-9a05-ae95c37af586-attr-2-name" class="er entityLabel">email</text><rect height="22" width="22.68768310546875" y="46" x="122.49214172363281" class="er attributeBoxEven"/><text style="dominant-baseline: middle; font-size: 10.2px;" transform="translate(127.49214172363281,57)" y="0" x="0" id="text-entity-usuarios-0588de21-826a-418d-9a05-ae95c37af586-attr-2-key" class="er entityLabel"/><rect height="22" width="59.19660949707031" y="68" x="0" class="er attributeBoxOdd"/><text style="dominant-baseline: middle; font-size: 10.2px;" transform="translate(5,79)" y="0" x="0" id="text-entity-usuarios-0588de21-826a-418d-9a05-ae95c37af586-attr-3-type" class="er entityLabel">String</text><rect height="22" width="63.2955322265625" y="68" x="59.19660949707031" class="er attributeBoxOdd"/><text style="dominant-baseline: middle; font-size: 10.2px;" transform="translate(64.19660949707031,79)" y="0" x="0" id="text-entity-usuarios-0588de21-826a-418d-9a05-ae95c37af586-attr-3-name" class="er entityLabel">password</text><rect height="22" width="22.68768310546875" y="68" x="122.49214172363281" class="er attributeBoxOdd"/><text style="dominant-baseline: middle; font-size: 10.2px;" transform="translate(127.49214172363281,79)" y="0" x="0" id="text-entity-usuarios-0588de21-826a-418d-9a05-ae95c37af586-attr-3-key" class="er entityLabel"/><rect height="22" width="59.19660949707031" y="90" x="0" class="er attributeBoxEven"/><text style="dominant-baseline: middle; font-size: 10.2px;" transform="translate(5,101)" y="0" x="0" id="text-entity-usuarios-0588de21-826a-418d-9a05-ae95c37af586-attr-4-type" class="er entityLabel">DateTime</text><rect height="22" width="63.2955322265625" y="90" x="59.19660949707031" class="er attributeBoxEven"/><text style="dominant-baseline: middle; font-size: 10.2px;" transform="translate(64.19660949707031,101)" y="0" x="0" id="text-entity-usuarios-0588de21-826a-418d-9a05-ae95c37af586-attr-4-name" class="er entityLabel">created_at</text><rect height="22" width="22.68768310546875" y="90" x="122.49214172363281" class="er attributeBoxEven"/><text style="dominant-baseline: middle; font-size: 10.2px;" transform="translate(127.49214172363281,101)" y="0" x="0" id="text-entity-usuarios-0588de21-826a-418d-9a05-ae95c37af586-attr-4-key" class="er entityLabel"/><rect height="22" width="59.19660949707031" y="112" x="0" class="er attributeBoxOdd"/><text style="dominant-baseline: middle; font-size: 10.2px;" transform="translate(5,123)" y="0" x="0" id="text-entity-usuarios-0588de21-826a-418d-9a05-ae95c37af586-attr-5-type" class="er entityLabel">DateTime</text><rect height="22" width="63.2955322265625" y="112" x="59.19660949707031" class="er attributeBoxOdd"/><text style="dominant-baseline: middle; font-size: 10.2px;" transform="translate(64.19660949707031,123)" y="0" x="0" id="text-entity-usuarios-0588de21-826a-418d-9a05-ae95c37af586-attr-5-name" class="er entityLabel">updated_at</text><rect height="22" width="22.68768310546875" y="112" x="122.49214172363281" class="er attributeBoxOdd"/><text style="dominant-baseline: middle; font-size: 10.2px;" transform="translate(127.49214172363281,123)" y="0" x="0" id="text-entity-usuarios-0588de21-826a-418d-9a05-ae95c37af586-attr-5-key" class="er entityLabel"/><rect height="22" width="59.19660949707031" y="134" x="0" class="er attributeBoxEven"/><text style="dominant-baseline: middle; font-size: 10.2px;" transform="translate(5,145)" y="0" x="0" id="text-entity-usuarios-0588de21-826a-418d-9a05-ae95c37af586-attr-6-type" class="er entityLabel">UserStatus</text><rect height="22" width="63.2955322265625" y="134" x="59.19660949707031" class="er attributeBoxEven"/><text style="dominant-baseline: middle; font-size: 10.2px;" transform="translate(64.19660949707031,145)" y="0" x="0" id="text-entity-usuarios-0588de21-826a-418d-9a05-ae95c37af586-attr-6-name" class="er entityLabel">active</text><rect height="22" width="22.68768310546875" y="134" x="122.49214172363281" class="er attributeBoxEven"/><text style="dominant-baseline: middle; font-size: 10.2px;" transform="translate(127.49214172363281,145)" y="0" x="0" id="text-entity-usuarios-0588de21-826a-418d-9a05-ae95c37af586-attr-6-key" class="er entityLabel"/><rect height="22" width="59.19660949707031" y="156" x="0" class="er attributeBoxOdd"/><text style="dominant-baseline: middle; font-size: 10.2px;" transform="translate(5,167)" y="0" x="0" id="text-entity-usuarios-0588de21-826a-418d-9a05-ae95c37af586-attr-7-type" class="er entityLabel">String</text><rect height="22" width="63.2955322265625" y="156" x="59.19660949707031" class="er attributeBoxOdd"/><text style="dominant-baseline: middle; font-size: 10.2px;" transform="translate(64.19660949707031,167)" y="0" x="0" id="text-entity-usuarios-0588de21-826a-418d-9a05-ae95c37af586-attr-7-name" class="er entityLabel">name</text><rect height="22" width="22.68768310546875" y="156" x="122.49214172363281" class="er attributeBoxOdd"/><text style="dominant-baseline: middle; font-size: 10.2px;" transform="translate(127.49214172363281,167)" y="0" x="0" id="text-entity-usuarios-0588de21-826a-418d-9a05-ae95c37af586-attr-7-key" class="er entityLabel"/></g><g transform="translate(245.33832550048828,466 )" id="entity-permissoes-2a36c47b-f25b-47c0-a27b-84a189daa5e9"><rect height="90" width="121.49058532714844" y="0" x="0" class="er entityBox"/><text style="dominant-baseline: middle; text-anchor: middle; font-size: 12px;" transform="translate(60.74529266357422,12)" y="0" x="0" id="text-entity-permissoes-2a36c47b-f25b-47c0-a27b-84a189daa5e9" class="er entityLabel">permissoes</text><rect height="22" width="37.39605712890625" y="24" x="0" class="er attributeBoxOdd"/><text style="dominant-baseline: middle; font-size: 10.2px;" transform="translate(5,35)" y="0" x="0" id="text-entity-permissoes-2a36c47b-f25b-47c0-a27b-84a189daa5e9-attr-1-type" class="er entityLabel">String</text><rect height="22" width="61.40684509277344" y="24" x="37.39605712890625" class="er attributeBoxOdd"/><text style="dominant-baseline: middle; font-size: 10.2px;" transform="translate(42.39605712890625,35)" y="0" x="0" id="text-entity-permissoes-2a36c47b-f25b-47c0-a27b-84a189daa5e9-attr-1-name" class="er entityLabel">id</text><rect height="22" width="22.68768310546875" y="24" x="98.80290222167969" class="er attributeBoxOdd"/><text style="dominant-baseline: middle; font-size: 10.2px;" transform="translate(103.80290222167969,35)" y="0" x="0" id="text-entity-permissoes-2a36c47b-f25b-47c0-a27b-84a189daa5e9-attr-1-key" class="er entityLabel">PK</text><rect height="22" width="37.39605712890625" y="46" x="0" class="er attributeBoxEven"/><text style="dominant-baseline: middle; font-size: 10.2px;" transform="translate(5,57)" y="0" x="0" id="text-entity-permissoes-2a36c47b-f25b-47c0-a27b-84a189daa5e9-attr-2-type" class="er entityLabel">String</text><rect height="22" width="61.40684509277344" y="46" x="37.39605712890625" class="er attributeBoxEven"/><text style="dominant-baseline: middle; font-size: 10.2px;" transform="translate(42.39605712890625,57)" y="0" x="0" id="text-entity-permissoes-2a36c47b-f25b-47c0-a27b-84a189daa5e9-attr-2-name" class="er entityLabel">name</text><rect height="22" width="22.68768310546875" y="46" x="98.80290222167969" class="er attributeBoxEven"/><text style="dominant-baseline: middle; font-size: 10.2px;" transform="translate(103.80290222167969,57)" y="0" x="0" id="text-entity-permissoes-2a36c47b-f25b-47c0-a27b-84a189daa5e9-attr-2-key" class="er entityLabel"/><rect height="22" width="37.39605712890625" y="68" x="0" class="er attributeBoxOdd"/><text style="dominant-baseline: middle; font-size: 10.2px;" transform="translate(5,79)" y="0" x="0" id="text-entity-permissoes-2a36c47b-f25b-47c0-a27b-84a189daa5e9-attr-3-type" class="er entityLabel">String</text><rect height="22" width="61.40684509277344" y="68" x="37.39605712890625" class="er attributeBoxOdd"/><text style="dominant-baseline: middle; font-size: 10.2px;" transform="translate(42.39605712890625,79)" y="0" x="0" id="text-entity-permissoes-2a36c47b-f25b-47c0-a27b-84a189daa5e9-attr-3-name" class="er entityLabel">description</text><rect height="22" width="22.68768310546875" y="68" x="98.80290222167969" class="er attributeBoxOdd"/><text style="dominant-baseline: middle; font-size: 10.2px;" transform="translate(103.80290222167969,79)" y="0" x="0" id="text-entity-permissoes-2a36c47b-f25b-47c0-a27b-84a189daa5e9-attr-3-key" class="er entityLabel"/></g><g transform="translate(286.6197509765625,239.5 )" id="entity-usuariospermissoes-2f53c7bc-d853-424d-abef-1300ec10c139"><rect height="75" width="138.927734375" y="0" x="0" class="er entityBox"/><text style="dominant-baseline: middle; text-anchor: middle; font-size: 12px;" transform="translate(69.4638671875,37.5)" y="0" x="0" id="text-entity-usuariospermissoes-2f53c7bc-d853-424d-abef-1300ec10c139" class="er entityLabel">usuarios_permissoes</text></g><g transform="translate(532.483154296875,254 )" id="entity-secretarias-fb4726a4-86ca-4db3-ba8c-b6f723191fea"><rect height="46" width="100" y="0" x="0" class="er entityBox"/><text style="dominant-baseline: middle; text-anchor: middle; font-size: 12px;" transform="translate(50,12)" y="0" x="0" id="text-entity-secretarias-fb4726a4-86ca-4db3-ba8c-b6f723191fea" class="er entityLabel">secretarias</text><rect height="22" width="44.39861551920573" y="24" x="0" class="er attributeBoxOdd"/><text style="dominant-baseline: middle; font-size: 10.2px;" transform="translate(5,35)" y="0" x="0" id="text-entity-secretarias-fb4726a4-86ca-4db3-ba8c-b6f723191fea-attr-1-type" class="er entityLabel">String</text><rect height="22" width="25.911142985026043" y="24" x="44.39861551920573" class="er attributeBoxOdd"/><text style="dominant-baseline: middle; font-size: 10.2px;" transform="translate(49.39861551920573,35)" y="0" x="0" id="text-entity-secretarias-fb4726a4-86ca-4db3-ba8c-b6f723191fea-attr-1-name" class="er entityLabel">id</text><rect height="22" width="29.69024149576823" y="24" x="70.30975850423177" class="er attributeBoxOdd"/><text style="dominant-baseline: middle; font-size: 10.2px;" transform="translate(75.30975850423177,35)" y="0" x="0" id="text-entity-secretarias-fb4726a4-86ca-4db3-ba8c-b6f723191fea-attr-1-key" class="er entityLabel">PK</text></g><g transform="translate(732.483154296875,254 )" id="entity-dentistas-7c35d49b-ca89-4bbb-b1df-d79834571abb"><rect height="46" width="100" y="0" x="0" class="er entityBox"/><text style="dominant-baseline: middle; text-anchor: middle; font-size: 12px;" transform="translate(50,12)" y="0" x="0" id="text-entity-dentistas-7c35d49b-ca89-4bbb-b1df-d79834571abb" class="er entityLabel">dentistas</text><rect height="22" width="44.39861551920573" y="24" x="0" class="er attributeBoxOdd"/><text style="dominant-baseline: middle; font-size: 10.2px;" transform="translate(5,35)" y="0" x="0" id="text-entity-dentistas-7c35d49b-ca89-4bbb-b1df-d79834571abb-attr-1-type" class="er entityLabel">String</text><rect height="22" width="25.911142985026043" y="24" x="44.39861551920573" class="er attributeBoxOdd"/><text style="dominant-baseline: middle; font-size: 10.2px;" transform="translate(49.39861551920573,35)" y="0" x="0" id="text-entity-dentistas-7c35d49b-ca89-4bbb-b1df-d79834571abb-attr-1-name" class="er entityLabel">id</text><rect height="22" width="29.69024149576823" y="24" x="70.30975850423177" class="er attributeBoxOdd"/><text style="dominant-baseline: middle; font-size: 10.2px;" transform="translate(75.30975850423177,35)" y="0" x="0" id="text-entity-dentistas-7c35d49b-ca89-4bbb-b1df-d79834571abb-attr-1-key" class="er entityLabel">PK</text></g><g transform="translate(932.483154296875,232 )" id="entity-procedimento-8891faa0-d96b-47f1-834f-33a120b16e5b"><rect height="90" width="105.203125" y="0" x="0" class="er entityBox"/><text style="dominant-baseline: middle; text-anchor: middle; font-size: 12px;" transform="translate(52.6015625,12)" y="0" x="0" id="text-entity-procedimento-8891faa0-d96b-47f1-834f-33a120b16e5b" class="er entityLabel">procedimento</text><rect height="22" width="40.63621520996094" y="24" x="0" class="er attributeBoxOdd"/><text style="dominant-baseline: middle; font-size: 10.2px;" transform="translate(5,35)" y="0" x="0" id="text-entity-procedimento-8891faa0-d96b-47f1-834f-33a120b16e5b-attr-1-type" class="er entityLabel">String</text><rect height="22" width="38.639068603515625" y="24" x="40.63621520996094" class="er attributeBoxOdd"/><text style="dominant-baseline: middle; font-size: 10.2px;" transform="translate(45.63621520996094,35)" y="0" x="0" id="text-entity-procedimento-8891faa0-d96b-47f1-834f-33a120b16e5b-attr-1-name" class="er entityLabel">id</text><rect height="22" width="25.927841186523438" y="24" x="79.27528381347656" class="er attributeBoxOdd"/><text style="dominant-baseline: middle; font-size: 10.2px;" transform="translate(84.27528381347656,35)" y="0" x="0" id="text-entity-procedimento-8891faa0-d96b-47f1-834f-33a120b16e5b-attr-1-key" class="er entityLabel">PK</text><rect height="22" width="40.63621520996094" y="46" x="0" class="er attributeBoxEven"/><text style="dominant-baseline: middle; font-size: 10.2px;" transform="translate(5,57)" y="0" x="0" id="text-entity-procedimento-8891faa0-d96b-47f1-834f-33a120b16e5b-attr-2-type" class="er entityLabel">String</text><rect height="22" width="38.639068603515625" y="46" x="40.63621520996094" class="er attributeBoxEven"/><text style="dominant-baseline: middle; font-size: 10.2px;" transform="translate(45.63621520996094,57)" y="0" x="0" id="text-entity-procedimento-8891faa0-d96b-47f1-834f-33a120b16e5b-attr-2-name" class="er entityLabel">name</text><rect height="22" width="25.927841186523438" y="46" x="79.27528381347656" class="er attributeBoxEven"/><text style="dominant-baseline: middle; font-size: 10.2px;" transform="translate(84.27528381347656,57)" y="0" x="0" id="text-entity-procedimento-8891faa0-d96b-47f1-834f-33a120b16e5b-attr-2-key" class="er entityLabel"/><rect height="22" width="40.63621520996094" y="68" x="0" class="er attributeBoxOdd"/><text style="dominant-baseline: middle; font-size: 10.2px;" transform="translate(5,79)" y="0" x="0" id="text-entity-procedimento-8891faa0-d96b-47f1-834f-33a120b16e5b-attr-3-type" class="er entityLabel">Float</text><rect height="22" width="38.639068603515625" y="68" x="40.63621520996094" class="er attributeBoxOdd"/><text style="dominant-baseline: middle; font-size: 10.2px;" transform="translate(45.63621520996094,79)" y="0" x="0" id="text-entity-procedimento-8891faa0-d96b-47f1-834f-33a120b16e5b-attr-3-name" class="er entityLabel">price</text><rect height="22" width="25.927841186523438" y="68" x="79.27528381347656" class="er attributeBoxOdd"/><text style="dominant-baseline: middle; font-size: 10.2px;" transform="translate(84.27528381347656,79)" y="0" x="0" id="text-entity-procedimento-8891faa0-d96b-47f1-834f-33a120b16e5b-attr-3-key" class="er entityLabel"/></g><g transform="translate(438.64156341552734,31 )" id="entity-dentistasprocedimentos-c49c7058-d0cf-427a-801c-5c1fdddfc353"><rect height="90" width="171.65232849121094" y="0" x="0" class="er entityBox"/><text style="dominant-baseline: middle; text-anchor: middle; font-size: 12px;" transform="translate(85.82616424560547,12)" y="0" x="0" id="text-entity-dentistasprocedimentos-c49c7058-d0cf-427a-801c-5c1fdddfc353" class="er entityLabel">dentistas_procedimentos</text><rect height="22" width="96.234375" y="24" x="0" class="er attributeBoxOdd"/><text style="dominant-baseline: middle; font-size: 10.2px;" transform="translate(5,35)" y="0" x="0" id="text-entity-dentistasprocedimentos-c49c7058-d0cf-427a-801c-5c1fdddfc353-attr-1-type" class="er entityLabel">DateTime</text><rect height="22" width="75.41795349121094" y="24" x="96.234375" class="er attributeBoxOdd"/><text style="dominant-baseline: middle; font-size: 10.2px;" transform="translate(101.234375,35)" y="0" x="0" id="text-entity-dentistasprocedimentos-c49c7058-d0cf-427a-801c-5c1fdddfc353-attr-1-name" class="er entityLabel">scheduled_at</text><rect height="22" width="96.234375" y="46" x="0" class="er attributeBoxEven"/><text style="dominant-baseline: middle; font-size: 10.2px;" transform="translate(5,57)" y="0" x="0" id="text-entity-dentistasprocedimentos-c49c7058-d0cf-427a-801c-5c1fdddfc353-attr-2-type" class="er entityLabel">DateTime</text><rect height="22" width="75.41795349121094" y="46" x="96.234375" class="er attributeBoxEven"/><text style="dominant-baseline: middle; font-size: 10.2px;" transform="translate(101.234375,57)" y="0" x="0" id="text-entity-dentistasprocedimentos-c49c7058-d0cf-427a-801c-5c1fdddfc353-attr-2-name" class="er entityLabel">scheduled_for</text><rect height="22" width="96.234375" y="68" x="0" class="er attributeBoxOdd"/><text style="dominant-baseline: middle; font-size: 10.2px;" transform="translate(5,79)" y="0" x="0" id="text-entity-dentistasprocedimentos-c49c7058-d0cf-427a-801c-5c1fdddfc353-attr-3-type" class="er entityLabel">ProcedureApproval</text><rect height="22" width="75.41795349121094" y="68" x="96.234375" class="er attributeBoxOdd"/><text style="dominant-baseline: middle; font-size: 10.2px;" transform="translate(101.234375,79)" y="0" x="0" id="text-entity-dentistasprocedimentos-c49c7058-d0cf-427a-801c-5c1fdddfc353-attr-3-name" class="er entityLabel">approved</text></g><g transform="translate(1187.686279296875,232 )" id="entity-convenios-62910d65-8509-4143-aa65-b55ba8583739"><rect height="90" width="142.6951904296875" y="0" x="0" class="er entityBox"/><text style="dominant-baseline: middle; text-anchor: middle; font-size: 12px;" transform="translate(71.34759521484375,12)" y="0" x="0" id="text-entity-convenios-62910d65-8509-4143-aa65-b55ba8583739" class="er entityLabel">convenios</text><rect height="22" width="37.39605712890625" y="24" x="0" class="er attributeBoxOdd"/><text style="dominant-baseline: middle; font-size: 10.2px;" transform="translate(5,35)" y="0" x="0" id="text-entity-convenios-62910d65-8509-4143-aa65-b55ba8583739-attr-1-type" class="er entityLabel">String</text><rect height="22" width="35.39891052246094" y="24" x="37.39605712890625" class="er attributeBoxOdd"/><text style="dominant-baseline: middle; font-size: 10.2px;" transform="translate(42.39605712890625,35)" y="0" x="0" id="text-entity-convenios-62910d65-8509-4143-aa65-b55ba8583739-attr-1-name" class="er entityLabel">id</text><rect height="22" width="22.68768310546875" y="24" x="72.79496765136719" class="er attributeBoxOdd"/><text style="dominant-baseline: middle; font-size: 10.2px;" transform="translate(77.79496765136719,35)" y="0" x="0" id="text-entity-convenios-62910d65-8509-4143-aa65-b55ba8583739-attr-1-key" class="er entityLabel">PK</text><rect height="22" width="47.21253967285156" y="24" x="95.48265075683594" class="er attributeBoxOdd"/><text style="dominant-baseline: middle; font-size: 10.2px;" transform="translate(100.48265075683594,35)" y="0" x="0" id="text-entity-convenios-62910d65-8509-4143-aa65-b55ba8583739-attr-1-comment" class="er entityLabel"/><rect height="22" width="37.39605712890625" y="46" x="0" class="er attributeBoxEven"/><text style="dominant-baseline: middle; font-size: 10.2px;" transform="translate(5,57)" y="0" x="0" id="text-entity-convenios-62910d65-8509-4143-aa65-b55ba8583739-attr-2-type" class="er entityLabel">String</text><rect height="22" width="35.39891052246094" y="46" x="37.39605712890625" class="er attributeBoxEven"/><text style="dominant-baseline: middle; font-size: 10.2px;" transform="translate(42.39605712890625,57)" y="0" x="0" id="text-entity-convenios-62910d65-8509-4143-aa65-b55ba8583739-attr-2-name" class="er entityLabel">name</text><rect height="22" width="22.68768310546875" y="46" x="72.79496765136719" class="er attributeBoxEven"/><text style="dominant-baseline: middle; font-size: 10.2px;" transform="translate(77.79496765136719,57)" y="0" x="0" id="text-entity-convenios-62910d65-8509-4143-aa65-b55ba8583739-attr-2-key" class="er entityLabel"/><rect height="22" width="47.21253967285156" y="46" x="95.48265075683594" class="er attributeBoxEven"/><text style="dominant-baseline: middle; font-size: 10.2px;" transform="translate(100.48265075683594,57)" y="0" x="0" id="text-entity-convenios-62910d65-8509-4143-aa65-b55ba8583739-attr-2-comment" class="er entityLabel"/><rect height="22" width="37.39605712890625" y="68" x="0" class="er attributeBoxOdd"/><text style="dominant-baseline: middle; font-size: 10.2px;" transform="translate(5,79)" y="0" x="0" id="text-entity-convenios-62910d65-8509-4143-aa65-b55ba8583739-attr-3-type" class="er entityLabel">String</text><rect height="22" width="35.39891052246094" y="68" x="37.39605712890625" class="er attributeBoxOdd"/><text style="dominant-baseline: middle; font-size: 10.2px;" transform="translate(42.39605712890625,79)" y="0" x="0" id="text-entity-convenios-62910d65-8509-4143-aa65-b55ba8583739-attr-3-name" class="er entityLabel">code</text><rect height="22" width="22.68768310546875" y="68" x="72.79496765136719" class="er attributeBoxOdd"/><text style="dominant-baseline: middle; font-size: 10.2px;" transform="translate(77.79496765136719,79)" y="0" x="0" id="text-entity-convenios-62910d65-8509-4143-aa65-b55ba8583739-attr-3-key" class="er entityLabel"/><rect height="22" width="47.21253967285156" y="68" x="95.48265075683594" class="er attributeBoxOdd"/><text style="dominant-baseline: middle; font-size: 10.2px;" transform="translate(100.48265075683594,79)" y="0" x="0" id="text-entity-convenios-62910d65-8509-4143-aa65-b55ba8583739-attr-3-comment" class="er entityLabel">nullable</text></g><g transform="translate(1430.3814697265625,232 )" id="entity-pacientes-39846700-8ede-43ff-87a9-440c7d3143e6"><rect height="90" width="278.77239990234375" y="0" x="0" class="er entityBox"/><text style="dominant-baseline: middle; text-anchor: middle; font-size: 12px;" transform="translate(139.38619995117188,12)" y="0" x="0" id="text-entity-pacientes-39846700-8ede-43ff-87a9-440c7d3143e6" class="er entityLabel">pacientes</text><rect height="22" width="54.095550537109375" y="24" x="0" class="er attributeBoxOdd"/><text style="dominant-baseline: middle; font-size: 10.2px;" transform="translate(5,35)" y="0" x="0" id="text-entity-pacientes-39846700-8ede-43ff-87a9-440c7d3143e6-attr-1-type" class="er entityLabel">String</text><rect height="22" width="154.77662658691406" y="24" x="54.095550537109375" class="er attributeBoxOdd"/><text style="dominant-baseline: middle; font-size: 10.2px;" transform="translate(59.095550537109375,35)" y="0" x="0" id="text-entity-pacientes-39846700-8ede-43ff-87a9-440c7d3143e6-attr-1-name" class="er entityLabel">id</text><rect height="22" width="22.68768310546875" y="24" x="208.87217712402344" class="er attributeBoxOdd"/><text style="dominant-baseline: middle; font-size: 10.2px;" transform="translate(213.87217712402344,35)" y="0" x="0" id="text-entity-pacientes-39846700-8ede-43ff-87a9-440c7d3143e6-attr-1-key" class="er entityLabel">PK</text><rect height="22" width="47.21253967285156" y="24" x="231.5598602294922" class="er attributeBoxOdd"/><text style="dominant-baseline: middle; font-size: 10.2px;" transform="translate(236.5598602294922,35)" y="0" x="0" id="text-entity-pacientes-39846700-8ede-43ff-87a9-440c7d3143e6-attr-1-comment" class="er entityLabel"/><rect height="22" width="54.095550537109375" y="46" x="0" class="er attributeBoxEven"/><text style="dominant-baseline: middle; font-size: 10.2px;" transform="translate(5,57)" y="0" x="0" id="text-entity-pacientes-39846700-8ede-43ff-87a9-440c7d3143e6-attr-2-type" class="er entityLabel">DateTime</text><rect height="22" width="154.77662658691406" y="46" x="54.095550537109375" class="er attributeBoxEven"/><text style="dominant-baseline: middle; font-size: 10.2px;" transform="translate(59.095550537109375,57)" y="0" x="0" id="text-entity-pacientes-39846700-8ede-43ff-87a9-440c7d3143e6-attr-2-name" class="er entityLabel">birth_date</text><rect height="22" width="22.68768310546875" y="46" x="208.87217712402344" class="er attributeBoxEven"/><text style="dominant-baseline: middle; font-size: 10.2px;" transform="translate(213.87217712402344,57)" y="0" x="0" id="text-entity-pacientes-39846700-8ede-43ff-87a9-440c7d3143e6-attr-2-key" class="er entityLabel"/><rect height="22" width="47.21253967285156" y="46" x="231.5598602294922" class="er attributeBoxEven"/><text style="dominant-baseline: middle; font-size: 10.2px;" transform="translate(236.5598602294922,57)" y="0" x="0" id="text-entity-pacientes-39846700-8ede-43ff-87a9-440c7d3143e6-attr-2-comment" class="er entityLabel"/><rect height="22" width="54.095550537109375" y="68" x="0" class="er attributeBoxOdd"/><text style="dominant-baseline: middle; font-size: 10.2px;" transform="translate(5,79)" y="0" x="0" id="text-entity-pacientes-39846700-8ede-43ff-87a9-440c7d3143e6-attr-3-type" class="er entityLabel">String</text><rect height="22" width="154.77662658691406" y="68" x="54.095550537109375" class="er attributeBoxOdd"/><text style="dominant-baseline: middle; font-size: 10.2px;" transform="translate(59.095550537109375,79)" y="0" x="0" id="text-entity-pacientes-39846700-8ede-43ff-87a9-440c7d3143e6-attr-3-name" class="er entityLabel">health_insurance_card_number</text><rect height="22" width="22.68768310546875" y="68" x="208.87217712402344" class="er attributeBoxOdd"/><text style="dominant-baseline: middle; font-size: 10.2px;" transform="translate(213.87217712402344,79)" y="0" x="0" id="text-entity-pacientes-39846700-8ede-43ff-87a9-440c7d3143e6-attr-3-key" class="er entityLabel"/><rect height="22" width="47.21253967285156" y="68" x="231.5598602294922" class="er attributeBoxOdd"/><text style="dominant-baseline: middle; font-size: 10.2px;" transform="translate(236.5598602294922,79)" y="0" x="0" id="text-entity-pacientes-39846700-8ede-43ff-87a9-440c7d3143e6-attr-3-comment" class="er entityLabel">nullable</text></g><g transform="translate(1442.4892272949219,38.5 )" id="entity-pacientesconvenios-7d625fdf-1bdd-483d-88e7-e3922d16d440"><rect height="75" width="140.685546875" y="0" x="0" class="er entityBox"/><text style="dominant-baseline: middle; text-anchor: middle; font-size: 12px;" transform="translate(70.3427734375,37.5)" y="0" x="0" id="text-entity-pacientesconvenios-7d625fdf-1bdd-483d-88e7-e3922d16d440" class="er entityLabel">pacientes_convenios</text></g><g transform="translate(1026.4128341674805,20 )" id="entity-historicomedico-e3f2e659-e128-4bdf-b89b-e6a4b47b13b4"><rect height="112" width="141.2929229736328" y="0" x="0" class="er entityBox"/><text style="dominant-baseline: middle; text-anchor: middle; font-size: 12px;" transform="translate(70.6464614868164,12)" y="0" x="0" id="text-entity-historicomedico-e3f2e659-e128-4bdf-b89b-e6a4b47b13b4" class="er entityLabel">historico_medico</text><rect height="22" width="54.095550537109375" y="24" x="0" class="er attributeBoxOdd"/><text style="dominant-baseline: middle; font-size: 10.2px;" transform="translate(5,35)" y="0" x="0" id="text-entity-historicomedico-e3f2e659-e128-4bdf-b89b-e6a4b47b13b4-attr-1-type" class="er entityLabel">String</text><rect height="22" width="64.50968933105469" y="24" x="54.095550537109375" class="er attributeBoxOdd"/><text style="dominant-baseline: middle; font-size: 10.2px;" transform="translate(59.095550537109375,35)" y="0" x="0" id="text-entity-historicomedico-e3f2e659-e128-4bdf-b89b-e6a4b47b13b4-attr-1-name" class="er entityLabel">id</text><rect height="22" width="22.68768310546875" y="24" x="118.60523986816406" class="er attributeBoxOdd"/><text style="dominant-baseline: middle; font-size: 10.2px;" transform="translate(123.60523986816406,35)" y="0" x="0" id="text-entity-historicomedico-e3f2e659-e128-4bdf-b89b-e6a4b47b13b4-attr-1-key" class="er entityLabel">PK</text><rect height="22" width="54.095550537109375" y="46" x="0" class="er attributeBoxEven"/><text style="dominant-baseline: middle; font-size: 10.2px;" transform="translate(5,57)" y="0" x="0" id="text-entity-historicomedico-e3f2e659-e128-4bdf-b89b-e6a4b47b13b4-attr-2-type" class="er entityLabel">String</text><rect height="22" width="64.50968933105469" y="46" x="54.095550537109375" class="er attributeBoxEven"/><text style="dominant-baseline: middle; font-size: 10.2px;" transform="translate(59.095550537109375,57)" y="0" x="0" id="text-entity-historicomedico-e3f2e659-e128-4bdf-b89b-e6a4b47b13b4-attr-2-name" class="er entityLabel">description</text><rect height="22" width="22.68768310546875" y="46" x="118.60523986816406" class="er attributeBoxEven"/><text style="dominant-baseline: middle; font-size: 10.2px;" transform="translate(123.60523986816406,57)" y="0" x="0" id="text-entity-historicomedico-e3f2e659-e128-4bdf-b89b-e6a4b47b13b4-attr-2-key" class="er entityLabel"/><rect height="22" width="54.095550537109375" y="68" x="0" class="er attributeBoxOdd"/><text style="dominant-baseline: middle; font-size: 10.2px;" transform="translate(5,79)" y="0" x="0" id="text-entity-historicomedico-e3f2e659-e128-4bdf-b89b-e6a4b47b13b4-attr-3-type" class="er entityLabel">DateTime</text><rect height="22" width="64.50968933105469" y="68" x="54.095550537109375" class="er attributeBoxOdd"/><text style="dominant-baseline: middle; font-size: 10.2px;" transform="translate(59.095550537109375,79)" y="0" x="0" id="text-entity-historicomedico-e3f2e659-e128-4bdf-b89b-e6a4b47b13b4-attr-3-name" class="er entityLabel">created_at</text><rect height="22" width="22.68768310546875" y="68" x="118.60523986816406" class="er attributeBoxOdd"/><text style="dominant-baseline: middle; font-size: 10.2px;" transform="translate(123.60523986816406,79)" y="0" x="0" id="text-entity-historicomedico-e3f2e659-e128-4bdf-b89b-e6a4b47b13b4-attr-3-key" class="er entityLabel"/><rect height="22" width="54.095550537109375" y="90" x="0" class="er attributeBoxEven"/><text style="dominant-baseline: middle; font-size: 10.2px;" transform="translate(5,101)" y="0" x="0" id="text-entity-historicomedico-e3f2e659-e128-4bdf-b89b-e6a4b47b13b4-attr-4-type" class="er entityLabel">DateTime</text><rect height="22" width="64.50968933105469" y="90" x="54.095550537109375" class="er attributeBoxEven"/><text style="dominant-baseline: middle; font-size: 10.2px;" transform="translate(59.095550537109375,101)" y="0" x="0" id="text-entity-historicomedico-e3f2e659-e128-4bdf-b89b-e6a4b47b13b4-attr-4-name" class="er entityLabel">updated_up</text><rect height="22" width="22.68768310546875" y="90" x="118.60523986816406" class="er attributeBoxEven"/><text style="dominant-baseline: middle; font-size: 10.2px;" transform="translate(123.60523986816406,101)" y="0" x="0" id="text-entity-historicomedico-e3f2e659-e128-4bdf-b89b-e6a4b47b13b4-attr-4-key" class="er entityLabel"/></g><rect height="14" width="67.328125" y="643" x="582.557373046875" class="er relationshipLabelBox"/><text style="text-anchor: middle; dominant-baseline: middle; font-size: 12px;" y="650" x="616.221435546875" id="rel1" class="er relationshipLabel">enum:active</text><rect height="14" width="21.642578125" y="380.6988830566406" x="298.65545654296875" class="er relationshipLabelBox"/><text style="text-anchor: middle; dominant-baseline: middle; font-size: 12px;" y="387.6988830566406" x="309.47674560546875" id="rel2" class="er relationshipLabel">role</text><rect height="14" width="23.958984375" y="386.8786315917969" x="444.2679748535156" class="er relationshipLabelBox"/><text style="text-anchor: middle; dominant-baseline: middle; font-size: 12px;" y="393.8786315917969" x="456.2474670410156" id="rel3" class="er relationshipLabel">user</text><rect height="14" width="23.958984375" y="354.4959411621094" x="571.9285888671875" class="er relationshipLabelBox"/><text style="text-anchor: middle; dominant-baseline: middle; font-size: 12px;" y="361.4959411621094" x="583.9080810546875" id="rel4" class="er relationshipLabel">user</text><rect height="14" width="23.958984375" y="379.9506530761719" x="744.8408813476562" class="er relationshipLabelBox"/><text style="text-anchor: middle; dominant-baseline: middle; font-size: 12px;" y="386.9506530761719" x="756.8203735351562" id="rel5" class="er relationshipLabel">user</text><rect height="14" width="84.2265625" y="139.28395080566406" x="210.68199157714844" class="er relationshipLabelBox"/><text style="text-anchor: middle; dominant-baseline: middle; font-size: 12px;" y="146.28395080566406" x="252.79527282714844" id="rel6" class="er relationshipLabel">enum:approved</text><rect height="14" width="37.82421875" y="168.87847900390625" x="677.1781616210938" class="er relationshipLabelBox"/><text style="text-anchor: middle; dominant-baseline: middle; font-size: 12px;" y="175.87847900390625" x="696.0902709960938" id="rel7" class="er relationshipLabel">dentist</text><rect height="14" width="55.181640625" y="142.01116943359375" x="762.8710327148438" class="er relationshipLabelBox"/><text style="text-anchor: middle; dominant-baseline: middle; font-size: 12px;" y="149.01116943359375" x="790.4618530273438" id="rel8" class="er relationshipLabel">procedure</text><rect height="14" width="23.958984375" y="426.41473388671875" x="1128.5576171875" class="er relationshipLabelBox"/><text style="text-anchor: middle; dominant-baseline: middle; font-size: 12px;" y="433.41473388671875" x="1140.537109375" id="rel9" class="er relationshipLabel">user</text><rect height="14" width="86.037109375" y="146.63665771484375" x="1294.81591796875" class="er relationshipLabelBox"/><text style="text-anchor: middle; dominant-baseline: middle; font-size: 12px;" y="153.63665771484375" x="1337.83447265625" id="rel10" class="er relationshipLabel">healthInsurance</text><rect height="14" width="39.271484375" y="162.2990264892578" x="1547.307373046875" class="er relationshipLabelBox"/><text style="text-anchor: middle; dominant-baseline: middle; font-size: 12px;" y="169.2990264892578" x="1566.943115234375" id="rel11" class="er relationshipLabel">patient</text><rect height="14" width="64.19921875" y="199.9603271484375" x="920.0706176757812" class="er relationshipLabelBox"/><text style="text-anchor: middle; dominant-baseline: middle; font-size: 12px;" y="206.9603271484375" x="952.1702270507812" id="rel12" class="er relationshipLabel">updated_by</text><rect height="14" width="39.271484375" y="198.3443145751953" x="1253.9412841796875" class="er relationshipLabelBox"/><text style="text-anchor: middle; dominant-baseline: middle; font-size: 12px;" y="205.3443145751953" x="1273.5770263671875" id="rel13" class="er relationshipLabel">patient</text></svg>