<svg aria-roledescription="er" viewBox="0 0 1661.2408447265625 788" style="max-width: 1661.24px; background-color: white;" xmlns:xlink="http://www.w3.org/1999/xlink" xmlns="http://www.w3.org/2000/svg" width="100%" id="mermaid-0"><style>#mermaid-0{font-family:"trebuchet ms",verdana,arial,sans-serif;font-size:16px;fill:#000000;}#mermaid-0 .error-icon{fill:#552222;}#mermaid-0 .error-text{fill:#552222;stroke:#552222;}#mermaid-0 .edge-thickness-normal{stroke-width:2px;}#mermaid-0 .edge-thickness-thick{stroke-width:3.5px;}#mermaid-0 .edge-pattern-solid{stroke-dasharray:0;}#mermaid-0 .edge-pattern-dashed{stroke-dasharray:3;}#mermaid-0 .edge-pattern-dotted{stroke-dasharray:2;}#mermaid-0 .marker{fill:#000000;stroke:#000000;}#mermaid-0 .marker.cross{stroke:#000000;}#mermaid-0 svg{font-family:"trebuchet ms",verdana,arial,sans-serif;font-size:16px;}#mermaid-0 .entityBox{fill:#cde498;stroke:#13540c;}#mermaid-0 .attributeBoxOdd{fill:#ffffff;stroke:#13540c;}#mermaid-0 .attributeBoxEven{fill:#f2f2f2;stroke:#13540c;}#mermaid-0 .relationshipLabelBox{fill:hsl(78.1578947368, 58.4615384615%, 84.5098039216%);opacity:0.7;background-color:hsl(78.1578947368, 58.4615384615%, 84.5098039216%);}#mermaid-0 .relationshipLabelBox rect{opacity:0.5;}#mermaid-0 .relationshipLine{stroke:#000000;}#mermaid-0 .entityTitleText{text-anchor:middle;font-size:18px;fill:#000000;}#mermaid-0 :root{--mermaid-font-family:"trebuchet ms",verdana,arial,sans-serif;}</style><g/><defs><marker orient="auto" markerHeight="18" markerWidth="18" refY="9" refX="0" id="ONLY_ONE_START"><path d="M9,0 L9,18 M15,0 L15,18" fill="none" stroke="gray"/></marker></defs><defs><marker orient="auto" markerHeight="18" markerWidth="18" refY="9" refX="18" id="ONLY_ONE_END"><path d="M3,0 L3,18 M9,0 L9,18" fill="none" stroke="gray"/></marker></defs><defs><marker orient="auto" markerHeight="18" markerWidth="30" refY="9" refX="0" id="ZERO_OR_ONE_START"><circle r="6" cy="9" cx="21" fill="white" stroke="gray"/><path d="M9,0 L9,18" fill="none" stroke="gray"/></marker></defs><defs><marker orient="auto" markerHeight="18" markerWidth="30" refY="9" refX="30" id="ZERO_OR_ONE_END"><circle r="6" cy="9" cx="9" fill="white" stroke="gray"/><path d="M21,0 L21,18" fill="none" stroke="gray"/></marker></defs><defs><marker orient="auto" markerHeight="36" markerWidth="45" refY="18" refX="18" id="ONE_OR_MORE_START"><path d="M0,18 Q 18,0 36,18 Q 18,36 0,18 M42,9 L42,27" fill="none" stroke="gray"/></marker></defs><defs><marker orient="auto" markerHeight="36" markerWidth="45" refY="18" refX="27" id="ONE_OR_MORE_END"><path d="M3,9 L3,27 M9,18 Q27,0 45,18 Q27,36 9,18" fill="none" stroke="gray"/></marker></defs><defs><marker orient="auto" markerHeight="36" markerWidth="57" refY="18" refX="18" id="ZERO_OR_MORE_START"><circle r="6" cy="18" cx="48" fill="white" stroke="gray"/><path d="M0,18 Q18,0 36,18 Q18,36 0,18" fill="none" stroke="gray"/></marker></defs><defs><marker orient="auto" markerHeight="36" markerWidth="57" refY="18" refX="39" id="ZERO_OR_MORE_END"><circle r="6" cy="18" cx="9" fill="white" stroke="gray"/><path d="M21,18 Q39,0 57,18 Q39,36 21,18" fill="none" stroke="gray"/></marker></defs><path style="stroke: gray; fill: none;" marker-start="url(#ZERO_OR_ONE_START)" marker-end="url(#ONLY_ONE_END)" d="M632.483154296875,600L632.483154296875,608.3333333333334C632.483154296875,616.6666666666666,632.483154296875,633.3333333333334,632.483154296875,650C632.483154296875,666.6666666666666,632.483154296875,683.3333333333334,632.483154296875,691.6666666666666L632.483154296875,700" class="er relationshipLine"/><path style="stroke: gray; fill: none;" marker-start="url(#ZERO_OR_MORE_START)" marker-end="url(#ONLY_ONE_END)" d="M336.3467760587993,314.5L331.3029164096765,324.0833333333333C326.25905676055373,333.6666666666667,316.17133746230814,352.8333333333333,311.1274778131853,378.0833333333333C306.0836181640625,403.3333333333333,306.0836181640625,434.6666666666667,306.0836181640625,450.3333333333333L306.0836181640625,466" class="er relationshipLine"/><path style="stroke: gray; fill: none;" marker-start="url(#ZERO_OR_MORE_START)" marker-end="url(#ONLY_ONE_END)" d="M382.39977706106083,314.5L389.1250176680715,324.0833333333333C395.85025827508224,333.6666666666667,409.3007394891036,352.8333333333333,438.88298362598084,377.5651633033569C468.4652277628581,402.2969932733804,514.1792348225912,432.59398654676073,537.0362383524576,447.74248318345093L559.8932418823242,462.89097982014107" class="er relationshipLine"/><path style="stroke: gray; fill: none;" marker-start="url(#ZERO_OR_MORE_START)" marker-end="url(#ONLY_ONE_END)" d="M582.483154296875,300L582.483154296875,312C582.483154296875,324,582.483154296875,348,585.4807562153402,368.3333333333333C588.4783581338055,388.6666666666667,594.4735619707359,405.3333333333333,597.4711638892012,413.6666666666667L600.4687658076664,422" class="er relationshipLine"/><path style="stroke: gray; fill: none;" marker-start="url(#ZERO_OR_MORE_START)" marker-end="url(#ONLY_ONE_END)" d="M782.483154296875,311L782.483154296875,321.1666666666667C782.483154296875,331.3333333333333,782.483154296875,351.6666666666667,769.5814730326334,373.78889130486385C756.679791768392,395.911115943061,730.8764292399088,419.822231886122,717.9747479756674,431.7777898576525L705.0730667114258,443.73334782918295" class="er relationshipLine"/><path style="stroke: gray; fill: none;" marker-start="url(#ZERO_OR_ONE_START)" marker-end="url(#ONLY_ONE_END)" d="M506.0131607055664,94.62236436316465L438.89594650268555,109.18530363597056C371.7787322998047,123.74824290877643,237.54430389404297,152.87412145438822,170.4270896911621,177.6037273938608C103.30987548828125,202.33333333333334,103.30987548828125,222.66666666666666,103.30987548828125,232.83333333333334L103.30987548828125,243" class="er relationshipLine"/><path style="stroke: gray; fill: none;" marker-start="url(#ZERO_OR_MORE_START)" marker-end="url(#ONLY_ONE_END)" d="M651.5466109941591,121L665.0360348779451,131.16666666666666C678.5254587617311,141.33333333333334,705.504306529303,161.66666666666666,724.3446076060715,182C743.1849086828398,202.33333333333334,753.8866630688048,222.66666666666666,759.2375402617872,232.83333333333334L764.5884174547697,243" class="er relationshipLine"/><path style="stroke: gray; fill: none;" marker-start="url(#ZERO_OR_MORE_START)" marker-end="url(#ONLY_ONE_END)" d="M677.6654891967773,113.4301828924155L703.8702074686686,124.85848574367958C730.0749257405599,136.28678859494366,782.4843622843424,159.14339429747181,859.8944028218588,181.46356483136572C937.304443359375,203.78373536525962,1039.715087890625,225.5674707305192,1090.92041015625,236.459338413149L1142.125732421875,247.3512060957788" class="er relationshipLine"/><path style="stroke: gray; fill: none;" marker-start="url(#ZERO_OR_MORE_START)" marker-end="url(#ONLY_ONE_END)" d="M677.6654891967773,102.33427493911107L720.938648223877,115.61189578259257C764.2118072509766,128.88951662607406,850.7581253051758,155.44475831303703,898.417249244556,177.05571248985186C946.0763731839364,198.66666666666666,954.8483030084977,215.33333333333334,959.2342679207785,223.66666666666666L963.6202328330592,232" class="er relationshipLine"/><path style="stroke: gray; fill: none;" marker-start="url(#ZERO_OR_MORE_START)" marker-end="url(#ONLY_ONE_END)" d="M1281.5119323730469,322L1281.5119323730469,330.3333333333333C1281.5119323730469,338.6666666666667,1281.5119323730469,355.3333333333333,1185.43878809611,384.24228288830506C1089.365643819173,413.1512324432768,897.2193552652994,454.30246488655354,801.1462109883627,474.87808110819196L705.0730667114258,495.45369732983033" class="er relationshipLine"/><path style="stroke: gray; fill: none;" marker-start="url(#ZERO_OR_MORE_START)" marker-end="url(#ONLY_ONE_END)" d="M1553.2094530789357,113.5L1547.8242329531495,124.91666666666667C1542.4390128273633,136.33333333333334,1531.668572575791,159.16666666666666,1530.6693173622855,178.91666666666666C1529.67006214878,198.66666666666666,1538.4419919733416,215.33333333333334,1542.8279568856221,223.66666666666666L1547.213921797903,232" class="er relationshipLine"/><path style="stroke: gray; fill: none;" marker-start="url(#ZERO_OR_MORE_START)" marker-end="url(#ONLY_ONE_END)" d="M1588.5868115695018,113.5L1593.972031695288,124.91666666666667C1599.3572518210742,136.33333333333334,1610.1276920726466,159.16666666666666,1582.179578865099,179.91390324785039C1554.231465657552,200.66113982903406,1487.5647989908855,219.32227965806814,1454.231465657552,228.65284957258518L1420.8981323242188,237.9834194871022" class="er relationshipLine"/><path style="stroke: gray; fill: none;" marker-start="url(#ZERO_OR_MORE_START)" marker-end="url(#ONLY_ONE_END)" d="M1130.2118409354732,132L1122.5778987572628,140.33333333333334C1114.9439565790524,148.66666666666666,1099.6760722226318,165.33333333333334,1050.054624449532,186.8779363131714C1000.4331766764323,208.42253929300944,916.4581654866537,234.84507858601887,874.4706598917643,248.05634823252362L832.483154296875,261.2676178790283" class="er relationshipLine"/><path style="stroke: gray; fill: none;" marker-start="url(#ZERO_OR_MORE_START)" marker-end="url(#ONLY_ONE_END)" d="M1207.9270267126694,132L1211.8578443227323,140.33333333333334C1215.7886619327953,148.66666666666666,1223.650297152921,165.33333333333334,1231.9670796752646,182C1240.2838621976082,198.66666666666666,1249.0557920221697,215.33333333333334,1253.4417569344503,223.66666666666666L1257.827721846731,232" class="er relationshipLine"/><g transform="translate(580.2652130126953,700 )" id="entity-UserStatus-05a3c94f-f6a1-4913-a277-eba5b274a2c3"><rect height="68" width="104.43588256835938" y="0" x="0" class="er entityBox"/><text style="dominant-baseline: middle; text-anchor: middle; font-size: 12px;" transform="translate(52.21794128417969,12)" y="0" x="0" id="text-entity-UserStatus-05a3c94f-f6a1-4913-a277-eba5b274a2c3" class="er entityLabel">UserStatus</text><rect height="22" width="52.21794128417969" y="24" x="0" class="er attributeBoxOdd"/><text style="dominant-baseline: middle; font-size: 10.2px;" transform="translate(5,35)" y="0" x="0" id="text-entity-UserStatus-05a3c94f-f6a1-4913-a277-eba5b274a2c3-attr-1-type" class="er entityLabel">ACTIVE</text><rect height="22" width="52.21794128417969" y="24" x="52.21794128417969" class="er attributeBoxOdd"/><text style="dominant-baseline: middle; font-size: 10.2px;" transform="translate(57.21794128417969,35)" y="0" x="0" id="text-entity-UserStatus-05a3c94f-f6a1-4913-a277-eba5b274a2c3-attr-1-name" class="er entityLabel">ACTIVE</text><rect height="22" width="52.21794128417969" y="46" x="0" class="er attributeBoxEven"/><text style="dominant-baseline: middle; font-size: 10.2px;" transform="translate(5,57)" y="0" x="0" id="text-entity-UserStatus-05a3c94f-f6a1-4913-a277-eba5b274a2c3-attr-2-type" class="er entityLabel">INACTIVE</text><rect height="22" width="52.21794128417969" y="46" x="52.21794128417969" class="er attributeBoxEven"/><text style="dominant-baseline: middle; font-size: 10.2px;" transform="translate(57.21794128417969,57)" y="0" x="0" id="text-entity-UserStatus-05a3c94f-f6a1-4913-a277-eba5b274a2c3-attr-2-name" class="er entityLabel">INACTIVE</text></g><g transform="translate(20,243 )" id="entity-ProcedureApproval-ba995d6a-9bba-4d6e-9a57-dd7b8f652055"><rect height="68" width="166.6197509765625" y="0" x="0" class="er entityBox"/><text style="dominant-baseline: middle; text-anchor: middle; font-size: 12px;" transform="translate(83.30987548828125,12)" y="0" x="0" id="text-entity-ProcedureApproval-ba995d6a-9bba-4d6e-9a57-dd7b8f652055" class="er entityLabel">ProcedureApproval</text><rect height="22" width="83.30987548828125" y="24" x="0" class="er attributeBoxOdd"/><text style="dominant-baseline: middle; font-size: 10.2px;" transform="translate(5,35)" y="0" x="0" id="text-entity-ProcedureApproval-ba995d6a-9bba-4d6e-9a57-dd7b8f652055-attr-1-type" class="er entityLabel">APPROVED</text><rect height="22" width="83.30987548828125" y="24" x="83.30987548828125" class="er attributeBoxOdd"/><text style="dominant-baseline: middle; font-size: 10.2px;" transform="translate(88.30987548828125,35)" y="0" x="0" id="text-entity-ProcedureApproval-ba995d6a-9bba-4d6e-9a57-dd7b8f652055-attr-1-name" class="er entityLabel">APPROVED</text><rect height="22" width="83.30987548828125" y="46" x="0" class="er attributeBoxEven"/><text style="dominant-baseline: middle; font-size: 10.2px;" transform="translate(5,57)" y="0" x="0" id="text-entity-ProcedureApproval-ba995d6a-9bba-4d6e-9a57-dd7b8f652055-attr-2-type" class="er entityLabel">NOT_APPROVED</text><rect height="22" width="83.30987548828125" y="46" x="83.30987548828125" class="er attributeBoxEven"/><text style="dominant-baseline: middle; font-size: 10.2px;" transform="translate(88.30987548828125,57)" y="0" x="0" id="text-entity-ProcedureApproval-ba995d6a-9bba-4d6e-9a57-dd7b8f652055-attr-2-name" class="er entityLabel">NOT_APPROVED</text></g><g transform="translate(559.8932418823242,422 )" id="entity-usuarios-647897a5-40f7-4f51-8818-17e5777b6aab"><rect height="178" width="145.17982482910156" y="0" x="0" class="er entityBox"/><text style="dominant-baseline: middle; text-anchor: middle; font-size: 12px;" transform="translate(72.58991241455078,12)" y="0" x="0" id="text-entity-usuarios-647897a5-40f7-4f51-8818-17e5777b6aab" class="er entityLabel">usuarios</text><rect height="22" width="59.19660949707031" y="24" x="0" class="er attributeBoxOdd"/><text style="dominant-baseline: middle; font-size: 10.2px;" transform="translate(5,35)" y="0" x="0" id="text-entity-usuarios-647897a5-40f7-4f51-8818-17e5777b6aab-attr-1-type" class="er entityLabel">String</text><rect height="22" width="63.2955322265625" y="24" x="59.19660949707031" class="er attributeBoxOdd"/><text style="dominant-baseline: middle; font-size: 10.2px;" transform="translate(64.19660949707031,35)" y="0" x="0" id="text-entity-usuarios-647897a5-40f7-4f51-8818-17e5777b6aab-attr-1-name" class="er entityLabel">id</text><rect height="22" width="22.68768310546875" y="24" x="122.49214172363281" class="er attributeBoxOdd"/><text style="dominant-baseline: middle; font-size: 10.2px;" transform="translate(127.49214172363281,35)" y="0" x="0" id="text-entity-usuarios-647897a5-40f7-4f51-8818-17e5777b6aab-attr-1-key" class="er entityLabel">PK</text><rect height="22" width="59.19660949707031" y="46" x="0" class="er attributeBoxEven"/><text style="dominant-baseline: middle; font-size: 10.2px;" transform="translate(5,57)" y="0" x="0" id="text-entity-usuarios-647897a5-40f7-4f51-8818-17e5777b6aab-attr-2-type" class="er entityLabel">String</text><rect height="22" width="63.2955322265625" y="46" x="59.19660949707031" class="er attributeBoxEven"/><text style="dominant-baseline: middle; font-size: 10.2px;" transform="translate(64.19660949707031,57)" y="0" x="0" id="text-entity-usuarios-647897a5-40f7-4f51-8818-17e5777b6aab-attr-2-name" class="er entityLabel">email</text><rect height="22" width="22.68768310546875" y="46" x="122.49214172363281" class="er attributeBoxEven"/><text style="dominant-baseline: middle; font-size: 10.2px;" transform="translate(127.49214172363281,57)" y="0" x="0" id="text-entity-usuarios-647897a5-40f7-4f51-8818-17e5777b6aab-attr-2-key" class="er entityLabel"/><rect height="22" width="59.19660949707031" y="68" x="0" class="er attributeBoxOdd"/><text style="dominant-baseline: middle; font-size: 10.2px;" transform="translate(5,79)" y="0" x="0" id="text-entity-usuarios-647897a5-40f7-4f51-8818-17e5777b6aab-attr-3-type" class="er entityLabel">String</text><rect height="22" width="63.2955322265625" y="68" x="59.19660949707031" class="er attributeBoxOdd"/><text style="dominant-baseline: middle; font-size: 10.2px;" transform="translate(64.19660949707031,79)" y="0" x="0" id="text-entity-usuarios-647897a5-40f7-4f51-8818-17e5777b6aab-attr-3-name" class="er entityLabel">password</text><rect height="22" width="22.68768310546875" y="68" x="122.49214172363281" class="er attributeBoxOdd"/><text style="dominant-baseline: middle; font-size: 10.2px;" transform="translate(127.49214172363281,79)" y="0" x="0" id="text-entity-usuarios-647897a5-40f7-4f51-8818-17e5777b6aab-attr-3-key" class="er entityLabel"/><rect height="22" width="59.19660949707031" y="90" x="0" class="er attributeBoxEven"/><text style="dominant-baseline: middle; font-size: 10.2px;" transform="translate(5,101)" y="0" x="0" id="text-entity-usuarios-647897a5-40f7-4f51-8818-17e5777b6aab-attr-4-type" class="er entityLabel">DateTime</text><rect height="22" width="63.2955322265625" y="90" x="59.19660949707031" class="er attributeBoxEven"/><text style="dominant-baseline: middle; font-size: 10.2px;" transform="translate(64.19660949707031,101)" y="0" x="0" id="text-entity-usuarios-647897a5-40f7-4f51-8818-17e5777b6aab-attr-4-name" class="er entityLabel">created_at</text><rect height="22" width="22.68768310546875" y="90" x="122.49214172363281" class="er attributeBoxEven"/><text style="dominant-baseline: middle; font-size: 10.2px;" transform="translate(127.49214172363281,101)" y="0" x="0" id="text-entity-usuarios-647897a5-40f7-4f51-8818-17e5777b6aab-attr-4-key" class="er entityLabel"/><rect height="22" width="59.19660949707031" y="112" x="0" class="er attributeBoxOdd"/><text style="dominant-baseline: middle; font-size: 10.2px;" transform="translate(5,123)" y="0" x="0" id="text-entity-usuarios-647897a5-40f7-4f51-8818-17e5777b6aab-attr-5-type" class="er entityLabel">DateTime</text><rect height="22" width="63.2955322265625" y="112" x="59.19660949707031" class="er attributeBoxOdd"/><text style="dominant-baseline: middle; font-size: 10.2px;" transform="translate(64.19660949707031,123)" y="0" x="0" id="text-entity-usuarios-647897a5-40f7-4f51-8818-17e5777b6aab-attr-5-name" class="er entityLabel">updated_at</text><rect height="22" width="22.68768310546875" y="112" x="122.49214172363281" class="er attributeBoxOdd"/><text style="dominant-baseline: middle; font-size: 10.2px;" transform="translate(127.49214172363281,123)" y="0" x="0" id="text-entity-usuarios-647897a5-40f7-4f51-8818-17e5777b6aab-attr-5-key" class="er entityLabel"/><rect height="22" width="59.19660949707031" y="134" x="0" class="er attributeBoxEven"/><text style="dominant-baseline: middle; font-size: 10.2px;" transform="translate(5,145)" y="0" x="0" id="text-entity-usuarios-647897a5-40f7-4f51-8818-17e5777b6aab-attr-6-type" class="er entityLabel">UserStatus</text><rect height="22" width="63.2955322265625" y="134" x="59.19660949707031" class="er attributeBoxEven"/><text style="dominant-baseline: middle; font-size: 10.2px;" transform="translate(64.19660949707031,145)" y="0" x="0" id="text-entity-usuarios-647897a5-40f7-4f51-8818-17e5777b6aab-attr-6-name" class="er entityLabel">active</text><rect height="22" width="22.68768310546875" y="134" x="122.49214172363281" class="er attributeBoxEven"/><text style="dominant-baseline: middle; font-size: 10.2px;" transform="translate(127.49214172363281,145)" y="0" x="0" id="text-entity-usuarios-647897a5-40f7-4f51-8818-17e5777b6aab-attr-6-key" class="er entityLabel"/><rect height="22" width="59.19660949707031" y="156" x="0" class="er attributeBoxOdd"/><text style="dominant-baseline: middle; font-size: 10.2px;" transform="translate(5,167)" y="0" x="0" id="text-entity-usuarios-647897a5-40f7-4f51-8818-17e5777b6aab-attr-7-type" class="er entityLabel">String</text><rect height="22" width="63.2955322265625" y="156" x="59.19660949707031" class="er attributeBoxOdd"/><text style="dominant-baseline: middle; font-size: 10.2px;" transform="translate(64.19660949707031,167)" y="0" x="0" id="text-entity-usuarios-647897a5-40f7-4f51-8818-17e5777b6aab-attr-7-name" class="er entityLabel">name</text><rect height="22" width="22.68768310546875" y="156" x="122.49214172363281" class="er attributeBoxOdd"/><text style="dominant-baseline: middle; font-size: 10.2px;" transform="translate(127.49214172363281,167)" y="0" x="0" id="text-entity-usuarios-647897a5-40f7-4f51-8818-17e5777b6aab-attr-7-key" class="er entityLabel"/></g><g transform="translate(245.33832550048828,466 )" id="entity-permissoes-ea9d4ae0-e12a-46ec-b280-0a75cb1bd8d7"><rect height="90" width="121.49058532714844" y="0" x="0" class="er entityBox"/><text style="dominant-baseline: middle; text-anchor: middle; font-size: 12px;" transform="translate(60.74529266357422,12)" y="0" x="0" id="text-entity-permissoes-ea9d4ae0-e12a-46ec-b280-0a75cb1bd8d7" class="er entityLabel">permissoes</text><rect height="22" width="37.39605712890625" y="24" x="0" class="er attributeBoxOdd"/><text style="dominant-baseline: middle; font-size: 10.2px;" transform="translate(5,35)" y="0" x="0" id="text-entity-permissoes-ea9d4ae0-e12a-46ec-b280-0a75cb1bd8d7-attr-1-type" class="er entityLabel">String</text><rect height="22" width="61.40684509277344" y="24" x="37.39605712890625" class="er attributeBoxOdd"/><text style="dominant-baseline: middle; font-size: 10.2px;" transform="translate(42.39605712890625,35)" y="0" x="0" id="text-entity-permissoes-ea9d4ae0-e12a-46ec-b280-0a75cb1bd8d7-attr-1-name" class="er entityLabel">id</text><rect height="22" width="22.68768310546875" y="24" x="98.80290222167969" class="er attributeBoxOdd"/><text style="dominant-baseline: middle; font-size: 10.2px;" transform="translate(103.80290222167969,35)" y="0" x="0" id="text-entity-permissoes-ea9d4ae0-e12a-46ec-b280-0a75cb1bd8d7-attr-1-key" class="er entityLabel">PK</text><rect height="22" width="37.39605712890625" y="46" x="0" class="er attributeBoxEven"/><text style="dominant-baseline: middle; font-size: 10.2px;" transform="translate(5,57)" y="0" x="0" id="text-entity-permissoes-ea9d4ae0-e12a-46ec-b280-0a75cb1bd8d7-attr-2-type" class="er entityLabel">String</text><rect height="22" width="61.40684509277344" y="46" x="37.39605712890625" class="er attributeBoxEven"/><text style="dominant-baseline: middle; font-size: 10.2px;" transform="translate(42.39605712890625,57)" y="0" x="0" id="text-entity-permissoes-ea9d4ae0-e12a-46ec-b280-0a75cb1bd8d7-attr-2-name" class="er entityLabel">name</text><rect height="22" width="22.68768310546875" y="46" x="98.80290222167969" class="er attributeBoxEven"/><text style="dominant-baseline: middle; font-size: 10.2px;" transform="translate(103.80290222167969,57)" y="0" x="0" id="text-entity-permissoes-ea9d4ae0-e12a-46ec-b280-0a75cb1bd8d7-attr-2-key" class="er entityLabel"/><rect height="22" width="37.39605712890625" y="68" x="0" class="er attributeBoxOdd"/><text style="dominant-baseline: middle; font-size: 10.2px;" transform="translate(5,79)" y="0" x="0" id="text-entity-permissoes-ea9d4ae0-e12a-46ec-b280-0a75cb1bd8d7-attr-3-type" class="er entityLabel">String</text><rect height="22" width="61.40684509277344" y="68" x="37.39605712890625" class="er attributeBoxOdd"/><text style="dominant-baseline: middle; font-size: 10.2px;" transform="translate(42.39605712890625,79)" y="0" x="0" id="text-entity-permissoes-ea9d4ae0-e12a-46ec-b280-0a75cb1bd8d7-attr-3-name" class="er entityLabel">description</text><rect height="22" width="22.68768310546875" y="68" x="98.80290222167969" class="er attributeBoxOdd"/><text style="dominant-baseline: middle; font-size: 10.2px;" transform="translate(103.80290222167969,79)" y="0" x="0" id="text-entity-permissoes-ea9d4ae0-e12a-46ec-b280-0a75cb1bd8d7-attr-3-key" class="er entityLabel"/></g><g transform="translate(286.6197509765625,239.5 )" id="entity-usuariospermissoes-e37ddcd0-fe06-4d51-aa15-799f2138eb2e"><rect height="75" width="138.927734375" y="0" x="0" class="er entityBox"/><text style="dominant-baseline: middle; text-anchor: middle; font-size: 12px;" transform="translate(69.4638671875,37.5)" y="0" x="0" id="text-entity-usuariospermissoes-e37ddcd0-fe06-4d51-aa15-799f2138eb2e" class="er entityLabel">usuarios_permissoes</text></g><g transform="translate(532.483154296875,254 )" id="entity-secretarias-375077f4-ca7e-47c6-9516-48bcf4f3a6ed"><rect height="46" width="100" y="0" x="0" class="er entityBox"/><text style="dominant-baseline: middle; text-anchor: middle; font-size: 12px;" transform="translate(50,12)" y="0" x="0" id="text-entity-secretarias-375077f4-ca7e-47c6-9516-48bcf4f3a6ed" class="er entityLabel">secretarias</text><rect height="22" width="44.39861551920573" y="24" x="0" class="er attributeBoxOdd"/><text style="dominant-baseline: middle; font-size: 10.2px;" transform="translate(5,35)" y="0" x="0" id="text-entity-secretarias-375077f4-ca7e-47c6-9516-48bcf4f3a6ed-attr-1-type" class="er entityLabel">String</text><rect height="22" width="25.911142985026043" y="24" x="44.39861551920573" class="er attributeBoxOdd"/><text style="dominant-baseline: middle; font-size: 10.2px;" transform="translate(49.39861551920573,35)" y="0" x="0" id="text-entity-secretarias-375077f4-ca7e-47c6-9516-48bcf4f3a6ed-attr-1-name" class="er entityLabel">id</text><rect height="22" width="29.69024149576823" y="24" x="70.30975850423177" class="er attributeBoxOdd"/><text style="dominant-baseline: middle; font-size: 10.2px;" transform="translate(75.30975850423177,35)" y="0" x="0" id="text-entity-secretarias-375077f4-ca7e-47c6-9516-48bcf4f3a6ed-attr-1-key" class="er entityLabel">PK</text></g><g transform="translate(732.483154296875,243 )" id="entity-dentistas-ac992608-7f8b-4791-9a75-ad7fada8da03"><rect height="68" width="100" y="0" x="0" class="er entityBox"/><text style="dominant-baseline: middle; text-anchor: middle; font-size: 12px;" transform="translate(50,12)" y="0" x="0" id="text-entity-dentistas-ac992608-7f8b-4791-9a75-ad7fada8da03" class="er entityLabel">dentistas</text><rect height="22" width="42.36326599121094" y="24" x="0" class="er attributeBoxOdd"/><text style="dominant-baseline: middle; font-size: 10.2px;" transform="translate(5,35)" y="0" x="0" id="text-entity-dentistas-ac992608-7f8b-4791-9a75-ad7fada8da03-attr-1-type" class="er entityLabel">String</text><rect height="22" width="29.981842041015625" y="24" x="42.36326599121094" class="er attributeBoxOdd"/><text style="dominant-baseline: middle; font-size: 10.2px;" transform="translate(47.36326599121094,35)" y="0" x="0" id="text-entity-dentistas-ac992608-7f8b-4791-9a75-ad7fada8da03-attr-1-name" class="er entityLabel">id</text><rect height="22" width="27.654891967773438" y="24" x="72.34510803222656" class="er attributeBoxOdd"/><text style="dominant-baseline: middle; font-size: 10.2px;" transform="translate(77.34510803222656,35)" y="0" x="0" id="text-entity-dentistas-ac992608-7f8b-4791-9a75-ad7fada8da03-attr-1-key" class="er entityLabel">PK</text><rect height="22" width="42.36326599121094" y="46" x="0" class="er attributeBoxEven"/><text style="dominant-baseline: middle; font-size: 10.2px;" transform="translate(5,57)" y="0" x="0" id="text-entity-dentistas-ac992608-7f8b-4791-9a75-ad7fada8da03-attr-2-type" class="er entityLabel">String</text><rect height="22" width="29.981842041015625" y="46" x="42.36326599121094" class="er attributeBoxEven"/><text style="dominant-baseline: middle; font-size: 10.2px;" transform="translate(47.36326599121094,57)" y="0" x="0" id="text-entity-dentistas-ac992608-7f8b-4791-9a75-ad7fada8da03-attr-2-name" class="er entityLabel">cro</text><rect height="22" width="27.654891967773438" y="46" x="72.34510803222656" class="er attributeBoxEven"/><text style="dominant-baseline: middle; font-size: 10.2px;" transform="translate(77.34510803222656,57)" y="0" x="0" id="text-entity-dentistas-ac992608-7f8b-4791-9a75-ad7fada8da03-attr-2-key" class="er entityLabel"/></g><g transform="translate(932.483154296875,232 )" id="entity-procedimentos-a5205d10-8be0-4e2f-bad4-b63febc1cae0"><rect height="90" width="109.642578125" y="0" x="0" class="er entityBox"/><text style="dominant-baseline: middle; text-anchor: middle; font-size: 12px;" transform="translate(54.8212890625,12)" y="0" x="0" id="text-entity-procedimentos-a5205d10-8be0-4e2f-bad4-b63febc1cae0" class="er entityLabel">procedimentos</text><rect height="22" width="42.11603291829427" y="24" x="0" class="er attributeBoxOdd"/><text style="dominant-baseline: middle; font-size: 10.2px;" transform="translate(5,35)" y="0" x="0" id="text-entity-procedimentos-a5205d10-8be0-4e2f-bad4-b63febc1cae0-attr-1-type" class="er entityLabel">String</text><rect height="22" width="40.11888631184896" y="24" x="42.11603291829427" class="er attributeBoxOdd"/><text style="dominant-baseline: middle; font-size: 10.2px;" transform="translate(47.11603291829427,35)" y="0" x="0" id="text-entity-procedimentos-a5205d10-8be0-4e2f-bad4-b63febc1cae0-attr-1-name" class="er entityLabel">id</text><rect height="22" width="27.40765889485677" y="24" x="82.23491923014323" class="er attributeBoxOdd"/><text style="dominant-baseline: middle; font-size: 10.2px;" transform="translate(87.23491923014323,35)" y="0" x="0" id="text-entity-procedimentos-a5205d10-8be0-4e2f-bad4-b63febc1cae0-attr-1-key" class="er entityLabel">PK</text><rect height="22" width="42.11603291829427" y="46" x="0" class="er attributeBoxEven"/><text style="dominant-baseline: middle; font-size: 10.2px;" transform="translate(5,57)" y="0" x="0" id="text-entity-procedimentos-a5205d10-8be0-4e2f-bad4-b63febc1cae0-attr-2-type" class="er entityLabel">String</text><rect height="22" width="40.11888631184896" y="46" x="42.11603291829427" class="er attributeBoxEven"/><text style="dominant-baseline: middle; font-size: 10.2px;" transform="translate(47.11603291829427,57)" y="0" x="0" id="text-entity-procedimentos-a5205d10-8be0-4e2f-bad4-b63febc1cae0-attr-2-name" class="er entityLabel">name</text><rect height="22" width="27.40765889485677" y="46" x="82.23491923014323" class="er attributeBoxEven"/><text style="dominant-baseline: middle; font-size: 10.2px;" transform="translate(87.23491923014323,57)" y="0" x="0" id="text-entity-procedimentos-a5205d10-8be0-4e2f-bad4-b63febc1cae0-attr-2-key" class="er entityLabel"/><rect height="22" width="42.11603291829427" y="68" x="0" class="er attributeBoxOdd"/><text style="dominant-baseline: middle; font-size: 10.2px;" transform="translate(5,79)" y="0" x="0" id="text-entity-procedimentos-a5205d10-8be0-4e2f-bad4-b63febc1cae0-attr-3-type" class="er entityLabel">Float</text><rect height="22" width="40.11888631184896" y="68" x="42.11603291829427" class="er attributeBoxOdd"/><text style="dominant-baseline: middle; font-size: 10.2px;" transform="translate(47.11603291829427,79)" y="0" x="0" id="text-entity-procedimentos-a5205d10-8be0-4e2f-bad4-b63febc1cae0-attr-3-name" class="er entityLabel">price</text><rect height="22" width="27.40765889485677" y="68" x="82.23491923014323" class="er attributeBoxOdd"/><text style="dominant-baseline: middle; font-size: 10.2px;" transform="translate(87.23491923014323,79)" y="0" x="0" id="text-entity-procedimentos-a5205d10-8be0-4e2f-bad4-b63febc1cae0-attr-3-key" class="er entityLabel"/></g><g transform="translate(506.0131607055664,31 )" id="entity-dentistasprocedimentos-30a1f826-8a92-47c8-827b-77152e71203b"><rect height="90" width="171.65232849121094" y="0" x="0" class="er entityBox"/><text style="dominant-baseline: middle; text-anchor: middle; font-size: 12px;" transform="translate(85.82616424560547,12)" y="0" x="0" id="text-entity-dentistasprocedimentos-30a1f826-8a92-47c8-827b-77152e71203b" class="er entityLabel">dentistas_procedimentos</text><rect height="22" width="96.234375" y="24" x="0" class="er attributeBoxOdd"/><text style="dominant-baseline: middle; font-size: 10.2px;" transform="translate(5,35)" y="0" x="0" id="text-entity-dentistasprocedimentos-30a1f826-8a92-47c8-827b-77152e71203b-attr-1-type" class="er entityLabel">DateTime</text><rect height="22" width="75.41795349121094" y="24" x="96.234375" class="er attributeBoxOdd"/><text style="dominant-baseline: middle; font-size: 10.2px;" transform="translate(101.234375,35)" y="0" x="0" id="text-entity-dentistasprocedimentos-30a1f826-8a92-47c8-827b-77152e71203b-attr-1-name" class="er entityLabel">scheduled_at</text><rect height="22" width="96.234375" y="46" x="0" class="er attributeBoxEven"/><text style="dominant-baseline: middle; font-size: 10.2px;" transform="translate(5,57)" y="0" x="0" id="text-entity-dentistasprocedimentos-30a1f826-8a92-47c8-827b-77152e71203b-attr-2-type" class="er entityLabel">DateTime</text><rect height="22" width="75.41795349121094" y="46" x="96.234375" class="er attributeBoxEven"/><text style="dominant-baseline: middle; font-size: 10.2px;" transform="translate(101.234375,57)" y="0" x="0" id="text-entity-dentistasprocedimentos-30a1f826-8a92-47c8-827b-77152e71203b-attr-2-name" class="er entityLabel">scheduled_for</text><rect height="22" width="96.234375" y="68" x="0" class="er attributeBoxOdd"/><text style="dominant-baseline: middle; font-size: 10.2px;" transform="translate(5,79)" y="0" x="0" id="text-entity-dentistasprocedimentos-30a1f826-8a92-47c8-827b-77152e71203b-attr-3-type" class="er entityLabel">ProcedureApproval</text><rect height="22" width="75.41795349121094" y="68" x="96.234375" class="er attributeBoxOdd"/><text style="dominant-baseline: middle; font-size: 10.2px;" transform="translate(101.234375,79)" y="0" x="0" id="text-entity-dentistasprocedimentos-30a1f826-8a92-47c8-827b-77152e71203b-attr-3-name" class="er entityLabel">approved</text></g><g transform="translate(1520.8981323242188,232 )" id="entity-convenios-53152c80-da8e-452a-8654-adafd9c33f3d"><rect height="90" width="100" y="0" x="0" class="er entityBox"/><text style="dominant-baseline: middle; text-anchor: middle; font-size: 12px;" transform="translate(50,12)" y="0" x="0" id="text-entity-convenios-53152c80-da8e-452a-8654-adafd9c33f3d" class="er entityLabel">convenios</text><rect height="22" width="38.90184020996094" y="24" x="0" class="er attributeBoxOdd"/><text style="dominant-baseline: middle; font-size: 10.2px;" transform="translate(5,35)" y="0" x="0" id="text-entity-convenios-53152c80-da8e-452a-8654-adafd9c33f3d-attr-1-type" class="er entityLabel">String</text><rect height="22" width="36.904693603515625" y="24" x="38.90184020996094" class="er attributeBoxOdd"/><text style="dominant-baseline: middle; font-size: 10.2px;" transform="translate(43.90184020996094,35)" y="0" x="0" id="text-entity-convenios-53152c80-da8e-452a-8654-adafd9c33f3d-attr-1-name" class="er entityLabel">id</text><rect height="22" width="24.193466186523438" y="24" x="75.80653381347656" class="er attributeBoxOdd"/><text style="dominant-baseline: middle; font-size: 10.2px;" transform="translate(80.80653381347656,35)" y="0" x="0" id="text-entity-convenios-53152c80-da8e-452a-8654-adafd9c33f3d-attr-1-key" class="er entityLabel">PK</text><rect height="22" width="38.90184020996094" y="46" x="0" class="er attributeBoxEven"/><text style="dominant-baseline: middle; font-size: 10.2px;" transform="translate(5,57)" y="0" x="0" id="text-entity-convenios-53152c80-da8e-452a-8654-adafd9c33f3d-attr-2-type" class="er entityLabel">String</text><rect height="22" width="36.904693603515625" y="46" x="38.90184020996094" class="er attributeBoxEven"/><text style="dominant-baseline: middle; font-size: 10.2px;" transform="translate(43.90184020996094,57)" y="0" x="0" id="text-entity-convenios-53152c80-da8e-452a-8654-adafd9c33f3d-attr-2-name" class="er entityLabel">name</text><rect height="22" width="24.193466186523438" y="46" x="75.80653381347656" class="er attributeBoxEven"/><text style="dominant-baseline: middle; font-size: 10.2px;" transform="translate(80.80653381347656,57)" y="0" x="0" id="text-entity-convenios-53152c80-da8e-452a-8654-adafd9c33f3d-attr-2-key" class="er entityLabel"/><rect height="22" width="38.90184020996094" y="68" x="0" class="er attributeBoxOdd"/><text style="dominant-baseline: middle; font-size: 10.2px;" transform="translate(5,79)" y="0" x="0" id="text-entity-convenios-53152c80-da8e-452a-8654-adafd9c33f3d-attr-3-type" class="er entityLabel">String</text><rect height="22" width="36.904693603515625" y="68" x="38.90184020996094" class="er attributeBoxOdd"/><text style="dominant-baseline: middle; font-size: 10.2px;" transform="translate(43.90184020996094,79)" y="0" x="0" id="text-entity-convenios-53152c80-da8e-452a-8654-adafd9c33f3d-attr-3-name" class="er entityLabel">code</text><rect height="22" width="24.193466186523438" y="68" x="75.80653381347656" class="er attributeBoxOdd"/><text style="dominant-baseline: middle; font-size: 10.2px;" transform="translate(80.80653381347656,79)" y="0" x="0" id="text-entity-convenios-53152c80-da8e-452a-8654-adafd9c33f3d-attr-3-key" class="er entityLabel"/></g><g transform="translate(1142.125732421875,232 )" id="entity-pacientes-fa28e8b1-6279-43fd-9257-9818afd4d0a5"><rect height="90" width="278.77239990234375" y="0" x="0" class="er entityBox"/><text style="dominant-baseline: middle; text-anchor: middle; font-size: 12px;" transform="translate(139.38619995117188,12)" y="0" x="0" id="text-entity-pacientes-fa28e8b1-6279-43fd-9257-9818afd4d0a5" class="er entityLabel">pacientes</text><rect height="22" width="54.095550537109375" y="24" x="0" class="er attributeBoxOdd"/><text style="dominant-baseline: middle; font-size: 10.2px;" transform="translate(5,35)" y="0" x="0" id="text-entity-pacientes-fa28e8b1-6279-43fd-9257-9818afd4d0a5-attr-1-type" class="er entityLabel">String</text><rect height="22" width="154.77662658691406" y="24" x="54.095550537109375" class="er attributeBoxOdd"/><text style="dominant-baseline: middle; font-size: 10.2px;" transform="translate(59.095550537109375,35)" y="0" x="0" id="text-entity-pacientes-fa28e8b1-6279-43fd-9257-9818afd4d0a5-attr-1-name" class="er entityLabel">id</text><rect height="22" width="22.68768310546875" y="24" x="208.87217712402344" class="er attributeBoxOdd"/><text style="dominant-baseline: middle; font-size: 10.2px;" transform="translate(213.87217712402344,35)" y="0" x="0" id="text-entity-pacientes-fa28e8b1-6279-43fd-9257-9818afd4d0a5-attr-1-key" class="er entityLabel">PK</text><rect height="22" width="47.21253967285156" y="24" x="231.5598602294922" class="er attributeBoxOdd"/><text style="dominant-baseline: middle; font-size: 10.2px;" transform="translate(236.5598602294922,35)" y="0" x="0" id="text-entity-pacientes-fa28e8b1-6279-43fd-9257-9818afd4d0a5-attr-1-comment" class="er entityLabel"/><rect height="22" width="54.095550537109375" y="46" x="0" class="er attributeBoxEven"/><text style="dominant-baseline: middle; font-size: 10.2px;" transform="translate(5,57)" y="0" x="0" id="text-entity-pacientes-fa28e8b1-6279-43fd-9257-9818afd4d0a5-attr-2-type" class="er entityLabel">DateTime</text><rect height="22" width="154.77662658691406" y="46" x="54.095550537109375" class="er attributeBoxEven"/><text style="dominant-baseline: middle; font-size: 10.2px;" transform="translate(59.095550537109375,57)" y="0" x="0" id="text-entity-pacientes-fa28e8b1-6279-43fd-9257-9818afd4d0a5-attr-2-name" class="er entityLabel">birth_date</text><rect height="22" width="22.68768310546875" y="46" x="208.87217712402344" class="er attributeBoxEven"/><text style="dominant-baseline: middle; font-size: 10.2px;" transform="translate(213.87217712402344,57)" y="0" x="0" id="text-entity-pacientes-fa28e8b1-6279-43fd-9257-9818afd4d0a5-attr-2-key" class="er entityLabel"/><rect height="22" width="47.21253967285156" y="46" x="231.5598602294922" class="er attributeBoxEven"/><text style="dominant-baseline: middle; font-size: 10.2px;" transform="translate(236.5598602294922,57)" y="0" x="0" id="text-entity-pacientes-fa28e8b1-6279-43fd-9257-9818afd4d0a5-attr-2-comment" class="er entityLabel"/><rect height="22" width="54.095550537109375" y="68" x="0" class="er attributeBoxOdd"/><text style="dominant-baseline: middle; font-size: 10.2px;" transform="translate(5,79)" y="0" x="0" id="text-entity-pacientes-fa28e8b1-6279-43fd-9257-9818afd4d0a5-attr-3-type" class="er entityLabel">String</text><rect height="22" width="154.77662658691406" y="68" x="54.095550537109375" class="er attributeBoxOdd"/><text style="dominant-baseline: middle; font-size: 10.2px;" transform="translate(59.095550537109375,79)" y="0" x="0" id="text-entity-pacientes-fa28e8b1-6279-43fd-9257-9818afd4d0a5-attr-3-name" class="er entityLabel">health_insurance_card_number</text><rect height="22" width="22.68768310546875" y="68" x="208.87217712402344" class="er attributeBoxOdd"/><text style="dominant-baseline: middle; font-size: 10.2px;" transform="translate(213.87217712402344,79)" y="0" x="0" id="text-entity-pacientes-fa28e8b1-6279-43fd-9257-9818afd4d0a5-attr-3-key" class="er entityLabel"/><rect height="22" width="47.21253967285156" y="68" x="231.5598602294922" class="er attributeBoxOdd"/><text style="dominant-baseline: middle; font-size: 10.2px;" transform="translate(236.5598602294922,79)" y="0" x="0" id="text-entity-pacientes-fa28e8b1-6279-43fd-9257-9818afd4d0a5-attr-3-comment" class="er entityLabel">nullable</text></g><g transform="translate(1500.5553588867188,38.5 )" id="entity-pacientesconvenios-8ba95c0e-94ab-4bbd-a558-c0828f7a2102"><rect height="75" width="140.685546875" y="0" x="0" class="er entityBox"/><text style="dominant-baseline: middle; text-anchor: middle; font-size: 12px;" transform="translate(70.3427734375,37.5)" y="0" x="0" id="text-entity-pacientesconvenios-8ba95c0e-94ab-4bbd-a558-c0828f7a2102" class="er entityLabel">pacientes_convenios</text></g><g transform="translate(1110.8654708862305,20 )" id="entity-historicomedico-b4d1eb1c-cc38-47f5-8b5b-2708fae4f3b7"><rect height="112" width="141.2929229736328" y="0" x="0" class="er entityBox"/><text style="dominant-baseline: middle; text-anchor: middle; font-size: 12px;" transform="translate(70.6464614868164,12)" y="0" x="0" id="text-entity-historicomedico-b4d1eb1c-cc38-47f5-8b5b-2708fae4f3b7" class="er entityLabel">historico_medico</text><rect height="22" width="54.095550537109375" y="24" x="0" class="er attributeBoxOdd"/><text style="dominant-baseline: middle; font-size: 10.2px;" transform="translate(5,35)" y="0" x="0" id="text-entity-historicomedico-b4d1eb1c-cc38-47f5-8b5b-2708fae4f3b7-attr-1-type" class="er entityLabel">String</text><rect height="22" width="64.50968933105469" y="24" x="54.095550537109375" class="er attributeBoxOdd"/><text style="dominant-baseline: middle; font-size: 10.2px;" transform="translate(59.095550537109375,35)" y="0" x="0" id="text-entity-historicomedico-b4d1eb1c-cc38-47f5-8b5b-2708fae4f3b7-attr-1-name" class="er entityLabel">id</text><rect height="22" width="22.68768310546875" y="24" x="118.60523986816406" class="er attributeBoxOdd"/><text style="dominant-baseline: middle; font-size: 10.2px;" transform="translate(123.60523986816406,35)" y="0" x="0" id="text-entity-historicomedico-b4d1eb1c-cc38-47f5-8b5b-2708fae4f3b7-attr-1-key" class="er entityLabel">PK</text><rect height="22" width="54.095550537109375" y="46" x="0" class="er attributeBoxEven"/><text style="dominant-baseline: middle; font-size: 10.2px;" transform="translate(5,57)" y="0" x="0" id="text-entity-historicomedico-b4d1eb1c-cc38-47f5-8b5b-2708fae4f3b7-attr-2-type" class="er entityLabel">String</text><rect height="22" width="64.50968933105469" y="46" x="54.095550537109375" class="er attributeBoxEven"/><text style="dominant-baseline: middle; font-size: 10.2px;" transform="translate(59.095550537109375,57)" y="0" x="0" id="text-entity-historicomedico-b4d1eb1c-cc38-47f5-8b5b-2708fae4f3b7-attr-2-name" class="er entityLabel">description</text><rect height="22" width="22.68768310546875" y="46" x="118.60523986816406" class="er attributeBoxEven"/><text style="dominant-baseline: middle; font-size: 10.2px;" transform="translate(123.60523986816406,57)" y="0" x="0" id="text-entity-historicomedico-b4d1eb1c-cc38-47f5-8b5b-2708fae4f3b7-attr-2-key" class="er entityLabel"/><rect height="22" width="54.095550537109375" y="68" x="0" class="er attributeBoxOdd"/><text style="dominant-baseline: middle; font-size: 10.2px;" transform="translate(5,79)" y="0" x="0" id="text-entity-historicomedico-b4d1eb1c-cc38-47f5-8b5b-2708fae4f3b7-attr-3-type" class="er entityLabel">DateTime</text><rect height="22" width="64.50968933105469" y="68" x="54.095550537109375" class="er attributeBoxOdd"/><text style="dominant-baseline: middle; font-size: 10.2px;" transform="translate(59.095550537109375,79)" y="0" x="0" id="text-entity-historicomedico-b4d1eb1c-cc38-47f5-8b5b-2708fae4f3b7-attr-3-name" class="er entityLabel">created_at</text><rect height="22" width="22.68768310546875" y="68" x="118.60523986816406" class="er attributeBoxOdd"/><text style="dominant-baseline: middle; font-size: 10.2px;" transform="translate(123.60523986816406,79)" y="0" x="0" id="text-entity-historicomedico-b4d1eb1c-cc38-47f5-8b5b-2708fae4f3b7-attr-3-key" class="er entityLabel"/><rect height="22" width="54.095550537109375" y="90" x="0" class="er attributeBoxEven"/><text style="dominant-baseline: middle; font-size: 10.2px;" transform="translate(5,101)" y="0" x="0" id="text-entity-historicomedico-b4d1eb1c-cc38-47f5-8b5b-2708fae4f3b7-attr-4-type" class="er entityLabel">DateTime</text><rect height="22" width="64.50968933105469" y="90" x="54.095550537109375" class="er attributeBoxEven"/><text style="dominant-baseline: middle; font-size: 10.2px;" transform="translate(59.095550537109375,101)" y="0" x="0" id="text-entity-historicomedico-b4d1eb1c-cc38-47f5-8b5b-2708fae4f3b7-attr-4-name" class="er entityLabel">updated_up</text><rect height="22" width="22.68768310546875" y="90" x="118.60523986816406" class="er attributeBoxEven"/><text style="dominant-baseline: middle; font-size: 10.2px;" transform="translate(123.60523986816406,101)" y="0" x="0" id="text-entity-historicomedico-b4d1eb1c-cc38-47f5-8b5b-2708fae4f3b7-attr-4-key" class="er entityLabel"/></g><rect height="14" width="67.328125" y="643" x="598.819091796875" class="er relationshipLabelBox"/><text style="text-anchor: middle; dominant-baseline: middle; font-size: 12px;" y="650" x="632.483154296875" id="rel1" class="er relationshipLabel">enum:active</text><rect height="14" width="21.642578125" y="380.6988830566406" x="298.65545654296875" class="er relationshipLabelBox"/><text style="text-anchor: middle; dominant-baseline: middle; font-size: 12px;" y="387.6988830566406" x="309.47674560546875" id="rel2" class="er relationshipLabel">role</text><rect height="14" width="23.958984375" y="390.0244445800781" x="451.7623291015625" class="er relationshipLabelBox"/><text style="text-anchor: middle; dominant-baseline: middle; font-size: 12px;" y="397.0244445800781" x="463.7418212890625" id="rel3" class="er relationshipLabel">user</text><rect height="14" width="23.958984375" y="355.07159423828125" x="572.681640625" class="er relationshipLabelBox"/><text style="text-anchor: middle; dominant-baseline: middle; font-size: 12px;" y="362.07159423828125" x="584.6611328125" id="rel4" class="er relationshipLabel">user</text><rect height="14" width="23.958984375" y="379.3940124511719" x="749.1062622070312" class="er relationshipLabelBox"/><text style="text-anchor: middle; dominant-baseline: middle; font-size: 12px;" y="386.3940124511719" x="761.0857543945312" id="rel5" class="er relationshipLabel">user</text><rect height="14" width="84.2265625" y="136.84194946289062" x="245.18466186523438" class="er relationshipLabelBox"/><text style="text-anchor: middle; dominant-baseline: middle; font-size: 12px;" y="143.84194946289062" x="287.2979431152344" id="rel6" class="er relationshipLabel">enum:approved</text><rect height="14" width="37.82421875" y="167.2083740234375" x="697.8372802734375" class="er relationshipLabelBox"/><text style="text-anchor: middle; dominant-baseline: middle; font-size: 12px;" y="174.2083740234375" x="716.7493896484375" id="rel7" class="er relationshipLabel">dentist</text><rect height="14" width="39.271484375" y="186.95692443847656" x="886.18115234375" class="er relationshipLabelBox"/><text style="text-anchor: middle; dominant-baseline: middle; font-size: 12px;" y="193.95692443847656" x="905.81689453125" id="rel8" class="er relationshipLabel">patient</text><rect height="14" width="55.181640625" y="143.83494567871094" x="802.8827514648438" class="er relationshipLabelBox"/><text style="text-anchor: middle; dominant-baseline: middle; font-size: 12px;" y="150.83494567871094" x="830.4735717773438" id="rel9" class="er relationshipLabel">procedure</text><rect height="14" width="23.958984375" y="422.7157287597656" x="994.2489013671875" class="er relationshipLabelBox"/><text style="text-anchor: middle; dominant-baseline: middle; font-size: 12px;" y="429.7157287597656" x="1006.2283935546875" id="rel10" class="er relationshipLabel">user</text><rect height="14" width="86.037109375" y="165.33352661132812" x="1488.31103515625" class="er relationshipLabelBox"/><text style="text-anchor: middle; dominant-baseline: middle; font-size: 12px;" y="172.33352661132812" x="1531.32958984375" id="rel11" class="er relationshipLabel">healthInsurance</text><rect height="14" width="39.271484375" y="194.67111206054688" x="1519.3896484375" class="er relationshipLabelBox"/><text style="text-anchor: middle; dominant-baseline: middle; font-size: 12px;" y="201.67111206054688" x="1539.025390625" id="rel12" class="er relationshipLabel">patient</text><rect height="14" width="64.19921875" y="203.54412841796875" x="956.4214477539062" class="er relationshipLabelBox"/><text style="text-anchor: middle; dominant-baseline: middle; font-size: 12px;" y="210.54412841796875" x="988.5210571289062" id="rel13" class="er relationshipLabel">updated_by</text><rect height="14" width="39.271484375" y="175.3634033203125" x="1212.51318359375" class="er relationshipLabelBox"/><text style="text-anchor: middle; dominant-baseline: middle; font-size: 12px;" y="182.3634033203125" x="1232.14892578125" id="rel14" class="er relationshipLabel">patient</text></svg>